<svg width="70" height="70" viewBox="0 0 70 70" fill="none" xmlns="http://www.w3.org/2000/svg">
<rect width="70" height="70" rx="10" fill="#50838E"/>
<path d="M28.7498 34.4792C27.3123 34.4792 26.1457 35.6459 26.1457 37.0834C26.1457 38.5209 27.3123 39.6876 28.7498 39.6876C30.1873 39.6876 31.354 38.5209 31.354 37.0834C31.354 35.6459 30.1873 34.4792 28.7498 34.4792ZM41.2498 34.4792C39.8123 34.4792 38.6457 35.6459 38.6457 37.0834C38.6457 38.5209 39.8123 39.6876 41.2498 39.6876C42.6873 39.6876 43.854 38.5209 43.854 37.0834C43.854 35.6459 42.6873 34.4792 41.2498 34.4792ZM34.9998 14.1667C23.4998 14.1667 14.1665 23.5001 14.1665 35.0001C14.1665 46.5001 23.4998 55.8334 34.9998 55.8334C46.4998 55.8334 55.8332 46.5001 55.8332 35.0001C55.8332 23.5001 46.4998 14.1667 34.9998 14.1667ZM34.9998 51.6668C25.8123 51.6668 18.3332 44.1876 18.3332 35.0001C18.3332 34.3959 18.3748 33.7918 18.4373 33.2084C23.354 31.0209 27.2498 27.0001 29.2915 22.0209C33.0623 27.3542 39.2707 30.8334 46.2915 30.8334C47.9165 30.8334 49.479 30.6459 50.979 30.2917C51.4165 31.7709 51.6665 33.3542 51.6665 35.0001C51.6665 44.1876 44.1873 51.6668 34.9998 51.6668Z" fill="white"/>
</svg>
