<svg width="469" height="500" viewBox="0 0 469 500" fill="none" xmlns="http://www.w3.org/2000/svg">
<g clip-path="url(#clip0_937_9)">
<path d="M449.96 384.627L199.89 240.227C196.38 238.227 193.54 232.767 193.54 228.097V34.6269C193.54 29.9469 196.38 27.7969 199.89 29.8269L449.96 174.227C453.47 176.227 456.31 181.687 456.31 186.357V379.827C456.35 384.507 453.51 386.657 449.96 384.627Z" fill="#B1B4C4"/>
<path d="M451.29 386.627L454.06 385.027L452.86 376.817L451.29 386.627Z" fill="#B1B4C4"/>
<path d="M193.09 30.997L195.82 29.417L199.74 31.657C199.74 31.657 195.56 32.287 195.46 32.267C195.36 32.247 193.09 30.997 193.09 30.997Z" fill="#B1B4C4"/>
<path d="M447.71 385.997L197.6 241.557C194.09 239.557 191.24 234.097 191.24 229.417V35.997C191.24 31.317 194.09 29.167 197.6 31.197L447.71 175.597C451.22 177.597 454.06 183.057 454.06 187.737V381.157C454.06 385.827 451.22 387.997 447.71 385.997Z" fill="#E4E7F2"/>
<path d="M447.27 386.207L197.16 241.807C193.65 239.807 190.8 234.347 190.8 229.667V36.1969C190.8 31.5269 193.65 29.3769 197.16 31.3969L447.27 175.797C450.77 177.797 453.62 183.257 453.62 187.937V381.407C453.62 386.087 450.77 388.237 447.27 386.207Z" fill="#D6D8E5"/>
<path d="M450.18 374.437L193.96 226.527L194.11 36.997C194.11 35.057 195.47 34.267 197.11 35.237L447.22 179.637C448.098 180.219 448.827 180.999 449.348 181.914C449.869 182.83 450.168 183.855 450.22 184.907L450.18 374.437Z" fill="white"/>
<path opacity="0.5" d="M450.1 374.447L193.96 226.537L194.04 36.997C194.04 35.057 195.4 34.267 197.04 35.237L447.15 179.637C448.028 180.219 448.756 181 449.277 181.915C449.798 182.83 450.097 183.855 450.15 184.907L450.1 374.447Z" fill="url(#paint0_linear_937_9)"/>
<path opacity="0.4" d="M258.63 498.627L8.51997 354.227C5.00997 352.227 5.44997 348.667 9.51997 346.327L177.07 249.587C181.07 247.257 187.25 246.997 190.75 249.027L440.87 393.427C444.37 395.427 443.93 398.987 439.87 401.327L272.31 498.067C268.26 500.397 262.13 500.657 258.63 498.627Z" fill="#D6D8E5"/>
<path d="M264.09 495.347L13.9599 350.997C10.4499 348.997 10.8899 345.437 14.9599 343.097L182.51 246.367C186.51 244.027 192.69 243.767 196.2 245.797L446.31 390.197C449.82 392.197 449.38 395.757 445.31 398.097L277.78 494.787C273.73 497.117 267.6 497.377 264.09 495.347Z" fill="#B1B4C4"/>
<path d="M11.6099 347.687V342.967L16.9099 345.187L11.6099 347.687Z" fill="#B1B4C4"/>
<path d="M448.68 393.677V389.067L444.76 390.417L447.36 394.237L448.68 393.677Z" fill="#B1B4C4"/>
<path d="M264.09 491.377L13.9599 346.997C10.4499 344.997 10.8899 341.437 14.9599 339.097L182.51 242.357C186.51 240.017 192.69 239.767 196.2 241.797L446.31 386.197C449.82 388.197 449.38 391.757 445.31 394.097L277.78 490.807C273.73 493.147 267.6 493.407 264.09 491.377Z" fill="#E4E7F2"/>
<path d="M264.09 490.767L13.9599 346.367C10.4499 344.367 10.8899 340.797 14.9599 338.467L182.51 241.727C186.51 239.387 192.69 239.137 196.2 241.157L446.31 385.567C449.82 387.567 449.38 391.127 445.31 393.467L277.78 490.197C273.73 492.537 267.6 492.787 264.09 490.767Z" fill="#D6D8E5"/>
<path d="M177.87 274.357L166.23 267.637C165.23 267.087 165.4 266.127 166.49 265.497L177.61 259.077C178.172 258.764 178.799 258.588 179.442 258.561C180.085 258.535 180.724 258.661 181.31 258.927L192.96 265.647C193.91 266.197 193.79 267.157 192.69 267.787L181.58 274.207C181.016 274.52 180.387 274.696 179.743 274.722C179.098 274.748 178.457 274.623 177.87 274.357Z" fill="#2B303F"/>
<path d="M194.36 283.877L182.71 277.147C181.76 276.607 181.88 275.647 182.98 275.007L194.09 268.597C194.654 268.284 195.283 268.108 195.927 268.081C196.571 268.055 197.213 268.181 197.8 268.447L209.44 275.167C210.44 275.717 210.27 276.677 209.18 277.307L198.06 283.717C197.5 284.034 196.872 284.213 196.229 284.241C195.586 284.269 194.946 284.144 194.36 283.877Z" fill="#2B303F"/>
<path d="M211.03 293.507L199.39 286.777C198.39 286.227 198.56 285.267 199.65 284.637L210.77 278.227C211.33 277.91 211.958 277.731 212.601 277.703C213.244 277.675 213.884 277.8 214.47 278.067L226.12 284.797C227.12 285.337 226.95 286.297 225.85 286.937L214.74 293.347C214.176 293.659 213.548 293.835 212.904 293.863C212.26 293.891 211.619 293.769 211.03 293.507Z" fill="#2B303F"/>
<path d="M227.33 302.907L215.68 296.187C214.73 295.637 214.85 294.677 215.95 294.047L227.06 287.627C227.624 287.314 228.253 287.137 228.897 287.111C229.541 287.085 230.183 287.21 230.77 287.477L242.42 294.197C243.37 294.747 243.25 295.707 242.15 296.337L231.04 302.757C230.476 303.07 229.847 303.246 229.203 303.272C228.558 303.298 227.917 303.173 227.33 302.907Z" fill="#2B303F"/>
<path d="M243.82 312.427L232.17 305.707C231.17 305.157 231.34 304.197 232.44 303.567L243.55 297.147C244.114 296.834 244.743 296.657 245.387 296.631C246.031 296.605 246.673 296.73 247.26 296.997L258.9 303.717C259.85 304.267 259.73 305.227 258.63 305.857L247.52 312.277C246.958 312.59 246.33 312.766 245.688 312.792C245.045 312.818 244.405 312.693 243.82 312.427Z" fill="#2B303F"/>
<path d="M260.3 321.997L248.66 315.277C247.71 314.727 247.82 313.767 248.92 313.137L260.03 306.717C260.594 306.404 261.223 306.228 261.867 306.202C262.512 306.176 263.153 306.301 263.74 306.567L275.39 313.287C276.34 313.837 276.22 314.797 275.12 315.427L264.01 321.847C263.446 322.16 262.817 322.336 262.173 322.363C261.529 322.389 260.887 322.263 260.3 321.997Z" fill="#2B303F"/>
<path d="M276.79 331.467L265.14 324.747C264.19 324.197 264.31 323.237 265.41 322.607L276.52 316.187C277.083 315.874 277.713 315.697 278.357 315.671C279.001 315.645 279.643 315.77 280.23 316.037L291.87 322.757C292.82 323.307 292.7 324.267 291.61 324.897L280.49 331.307C279.929 331.623 279.302 331.803 278.659 331.831C278.016 331.859 277.375 331.734 276.79 331.467Z" fill="#2B303F"/>
<path d="M293.27 340.997L281.63 334.267C280.68 333.717 280.8 332.767 281.89 332.127L293.01 325.717C293.57 325.4 294.198 325.221 294.841 325.193C295.484 325.165 296.124 325.29 296.71 325.557L308.36 332.287C309.36 332.837 309.19 333.787 308.09 334.427L296.96 340.827C296.401 341.142 295.776 341.321 295.135 341.351C294.494 341.38 293.855 341.259 293.27 340.997Z" fill="#2B303F"/>
<path d="M309.76 350.497L298.11 343.777C297.16 343.227 297.28 342.267 298.38 341.637L309.49 335.227C310.052 334.91 310.681 334.731 311.326 334.703C311.97 334.675 312.613 334.8 313.2 335.067L324.84 341.797C325.79 342.337 325.67 343.297 324.58 343.937L313.47 350.347C312.906 350.66 312.277 350.837 311.633 350.863C310.989 350.889 310.347 350.763 309.76 350.497Z" fill="#2B303F"/>
<path d="M326.24 359.997L314.6 353.277C313.65 352.727 313.77 351.767 314.86 351.137L325.96 344.737C326.522 344.424 327.15 344.248 327.792 344.222C328.435 344.196 329.075 344.321 329.66 344.587L341.31 351.307C342.26 351.857 342.14 352.817 341.04 353.447L329.96 359.867C329.393 360.178 328.762 360.352 328.116 360.375C327.469 360.397 326.827 360.268 326.24 359.997Z" fill="#2B303F"/>
<path d="M342.73 369.537L331.08 362.817C330.13 362.267 330.25 361.307 331.35 360.677L342.46 354.257C343.024 353.944 343.653 353.768 344.297 353.742C344.942 353.716 345.583 353.841 346.17 354.107L357.82 360.827C358.77 361.377 358.65 362.337 357.55 362.967L346.44 369.387C345.876 369.7 345.247 369.876 344.603 369.903C343.959 369.929 343.317 369.803 342.73 369.537Z" fill="#2B303F"/>
<path d="M359.22 379.057L347.57 372.337C346.62 371.787 346.74 370.827 347.84 370.197L358.96 363.777C359.524 363.464 360.153 363.288 360.797 363.262C361.441 363.236 362.083 363.361 362.67 363.627L374.31 370.347C375.31 370.897 375.14 371.857 374.04 372.487L362.96 378.907C362.393 379.226 361.758 379.406 361.108 379.433C360.458 379.459 359.811 379.33 359.22 379.057Z" fill="#2B303F"/>
<path d="M375.7 388.577L364.06 381.847C363.06 381.297 363.22 380.347 364.32 379.707L375.43 373.297C375.993 372.982 376.622 372.804 377.266 372.776C377.91 372.749 378.552 372.872 379.14 373.137L390.79 379.867C391.74 380.417 391.62 381.367 390.52 382.007L379.41 388.417C378.848 388.734 378.219 388.913 377.574 388.941C376.929 388.969 376.287 388.844 375.7 388.577Z" fill="#2B303F"/>
<path d="M400.13 402.677L380.54 391.367C379.59 390.817 379.71 389.857 380.81 389.227L391.96 382.817C392.522 382.5 393.151 382.321 393.796 382.293C394.441 382.265 395.083 382.39 395.67 382.657L415.21 393.997C416.16 394.547 416.04 395.507 414.95 396.137L403.83 402.557C403.266 402.865 402.637 403.036 401.994 403.057C401.352 403.078 400.713 402.948 400.13 402.677Z" fill="#2B303F"/>
<path d="M186.35 297.697L174.7 290.997C173.7 290.447 173.87 289.487 174.97 288.857L186.08 282.437C186.644 282.124 187.273 281.947 187.917 281.921C188.562 281.895 189.203 282.02 189.79 282.287L201.43 288.997C202.38 289.547 202.26 290.507 201.17 291.137L190.05 297.557C189.487 297.868 188.859 298.043 188.217 298.067C187.574 298.091 186.935 297.965 186.35 297.697Z" fill="#2B303F"/>
<path d="M202.86 307.237L191.22 300.517C190.27 299.967 190.39 299.007 191.48 298.377L202.6 291.997C203.162 291.684 203.789 291.507 204.432 291.481C205.075 291.455 205.714 291.58 206.3 291.847L217.96 298.527C218.91 299.077 218.79 300.037 217.69 300.667L206.58 307.087C206.015 307.401 205.384 307.579 204.738 307.605C204.091 307.631 203.448 307.505 202.86 307.237Z" fill="#2B303F"/>
<path d="M219.38 316.767L207.73 310.047C206.73 309.497 206.9 308.537 208 307.907L219.11 301.487C219.674 301.174 220.303 300.998 220.947 300.972C221.591 300.946 222.233 301.071 222.82 301.337L234.46 308.057C235.41 308.607 235.29 309.567 234.2 310.197L223.08 316.617C222.518 316.93 221.89 317.106 221.248 317.132C220.605 317.158 219.965 317.033 219.38 316.767Z" fill="#2B303F"/>
<path d="M235.89 326.307L224.24 319.577C223.29 319.037 223.41 318.077 224.51 317.437L235.62 310.997C236.183 310.683 236.812 310.504 237.456 310.476C238.1 310.449 238.742 310.572 239.33 310.837L250.96 317.597C251.91 318.147 251.79 319.097 250.69 319.737L239.58 326.147C239.02 326.46 238.395 326.638 237.754 326.666C237.113 326.694 236.475 326.571 235.89 326.307Z" fill="#2B303F"/>
<path d="M252.27 335.767L240.63 328.997C239.68 328.447 239.8 327.497 240.89 326.857L252.01 320.447C252.57 320.13 253.198 319.951 253.841 319.923C254.484 319.895 255.124 320.02 255.71 320.287L267.36 327.017C268.36 327.557 268.19 328.517 267.09 329.157L255.96 335.607C255.399 335.918 254.774 336.094 254.134 336.122C253.493 336.15 252.855 336.028 252.27 335.767Z" fill="#2B303F"/>
<path d="M268.79 345.297L257.14 338.577C256.19 338.027 256.31 337.067 257.41 336.437L268.52 329.997C269.083 329.684 269.713 329.507 270.357 329.481C271.001 329.455 271.643 329.581 272.23 329.847L283.87 336.567C284.82 337.117 284.7 338.077 283.61 338.707L272.49 345.127C271.929 345.443 271.303 345.623 270.66 345.652C270.017 345.682 269.377 345.56 268.79 345.297Z" fill="#2B303F"/>
<path d="M285.3 354.827L273.65 348.107C272.7 347.557 272.82 346.597 273.92 345.967L285.03 339.557C285.592 339.24 286.221 339.06 286.866 339.033C287.51 339.005 288.153 339.13 288.74 339.397L300.39 346.127C301.34 346.667 301.22 347.627 300.12 348.267L289.01 354.677C288.446 354.99 287.817 355.166 287.173 355.192C286.529 355.218 285.887 355.093 285.3 354.827Z" fill="#2B303F"/>
<path d="M301.81 364.367L290.17 357.647C289.22 357.097 289.34 356.137 290.44 355.507L301.55 349.087C302.112 348.774 302.74 348.598 303.382 348.572C304.025 348.546 304.665 348.671 305.25 348.937L316.9 355.657C317.85 356.207 317.73 357.167 316.63 357.797L305.52 364.217C304.956 364.53 304.327 364.706 303.683 364.733C303.039 364.759 302.397 364.633 301.81 364.367Z" fill="#2B303F"/>
<path d="M318.33 373.897L306.68 367.177C305.68 366.627 305.85 365.667 306.95 365.037L318.06 358.617C318.624 358.304 319.253 358.128 319.897 358.102C320.542 358.075 321.183 358.201 321.77 358.467L333.41 365.187C334.36 365.737 334.25 366.697 333.15 367.327L322.04 373.747C321.476 374.06 320.847 374.236 320.203 374.262C319.559 374.288 318.917 374.163 318.33 373.897Z" fill="#2B303F"/>
<path d="M334.84 383.437L323.2 376.707C322.25 376.167 322.37 375.207 323.46 374.567L334.58 368.157C335.142 367.845 335.769 367.668 336.411 367.64C337.053 367.612 337.693 367.734 338.28 367.997L349.96 374.727C350.91 375.277 350.79 376.237 349.69 376.867L338.58 383.277C338.014 383.599 337.379 383.781 336.729 383.809C336.079 383.836 335.431 383.709 334.84 383.437Z" fill="#2B303F"/>
<path d="M351.36 392.997L339.71 386.277C338.76 385.727 338.88 384.767 339.98 384.137L351.09 377.717C351.654 377.404 352.283 377.228 352.927 377.202C353.571 377.176 354.213 377.301 354.8 377.567L366.44 384.287C367.39 384.837 367.27 385.797 366.18 386.427L355.06 392.847C354.498 393.16 353.871 393.336 353.228 393.362C352.585 393.388 351.945 393.263 351.36 392.997Z" fill="#2B303F"/>
<path d="M367.87 402.507L356.23 395.777C355.28 395.227 355.39 394.277 356.49 393.637L367.6 387.227C368.163 386.913 368.792 386.734 369.436 386.706C370.08 386.679 370.722 386.802 371.31 387.067L382.96 393.797C383.91 394.347 383.79 395.297 382.69 395.937L371.58 402.347C371.018 402.664 370.389 402.843 369.744 402.871C369.099 402.899 368.457 402.774 367.87 402.507Z" fill="#2B303F"/>
<path d="M169.83 288.167L150.25 276.857C149.3 276.307 149.42 275.357 150.51 274.717L161.63 268.307C162.19 267.99 162.818 267.811 163.461 267.783C164.104 267.755 164.744 267.88 165.33 268.147L184.96 279.457C185.91 280.007 185.79 280.967 184.69 281.597L173.54 287.997C172.978 288.313 172.349 288.493 171.705 288.523C171.061 288.552 170.419 288.43 169.83 288.167Z" fill="#2B303F"/>
<path d="M399.33 403.287L387.69 396.567C387.154 396.293 386.561 396.15 385.96 396.15C385.358 396.15 384.766 396.293 384.23 396.567L372.49 403.347C371.49 403.897 371.49 404.787 372.49 405.347L373.42 405.887C374.3 406.387 374.29 407.217 373.42 407.727L360.96 414.887C359.96 415.447 359.96 416.337 360.96 416.887L368.37 421.167C368.904 421.438 369.495 421.58 370.095 421.58C370.694 421.58 371.285 421.438 371.82 421.167L383.44 414.467L385.84 413.077L387.57 412.077L389.31 411.077L399.31 405.307C400.28 404.727 400.28 403.837 399.33 403.287Z" fill="#2B303F"/>
<path d="M114.02 311.297L102.38 304.577C101.38 304.027 101.55 303.067 102.64 302.437L113.76 295.997C114.322 295.684 114.949 295.507 115.592 295.481C116.235 295.455 116.874 295.58 117.46 295.847L129.11 302.567C130.06 303.117 129.94 304.077 128.84 304.707L117.73 311.127C117.168 311.443 116.539 311.623 115.895 311.652C115.251 311.682 114.609 311.56 114.02 311.297Z" fill="#2B303F"/>
<path d="M130.46 320.787L118.82 314.067C117.82 313.517 117.99 312.557 119.08 311.927L130.2 305.507C130.762 305.194 131.39 305.018 132.032 304.992C132.675 304.966 133.315 305.091 133.9 305.357L145.55 312.077C146.5 312.627 146.38 313.587 145.28 314.217L134.17 320.637C133.606 320.95 132.977 321.126 132.333 321.152C131.689 321.178 131.047 321.053 130.46 320.787Z" fill="#2B303F"/>
<path d="M146.9 330.277L135.26 323.557C134.26 323.007 134.42 322.047 135.52 321.417L146.63 314.997C147.194 314.684 147.823 314.507 148.467 314.481C149.111 314.455 149.753 314.581 150.34 314.847L161.96 321.567C162.91 322.117 162.79 323.077 161.69 323.707L150.58 330.127C150.02 330.435 149.396 330.609 148.758 330.635C148.119 330.661 147.483 330.538 146.9 330.277Z" fill="#2B303F"/>
<path d="M286.9 411.107L275.25 404.377C274.25 403.837 274.42 402.877 275.52 402.237L286.63 395.827C287.193 395.513 287.822 395.334 288.466 395.307C289.11 395.279 289.752 395.402 290.34 395.667L301.96 402.397C302.96 402.947 302.79 403.897 301.69 404.537L290.6 410.997C290.036 411.306 289.406 411.477 288.763 411.496C288.12 411.515 287.482 411.382 286.9 411.107Z" fill="#2B303F"/>
<path d="M303.33 420.597L291.69 413.877C290.69 413.327 290.86 412.367 291.95 411.737L303.07 405.317C303.632 405.004 304.259 404.828 304.902 404.802C305.545 404.776 306.184 404.901 306.77 405.167L318.42 411.887C319.42 412.437 319.25 413.397 318.15 414.027L307.04 420.447C306.476 420.76 305.847 420.936 305.203 420.962C304.558 420.988 303.917 420.863 303.33 420.597Z" fill="#2B303F"/>
<path d="M319.77 430.087L308.13 423.367C307.18 422.817 307.3 421.857 308.39 421.227L319.51 414.807C320.072 414.494 320.699 414.318 321.342 414.291C321.985 414.265 322.624 414.391 323.21 414.657L334.86 421.377C335.86 421.927 335.69 422.887 334.59 423.517L323.48 429.937C322.916 430.25 322.287 430.426 321.643 430.452C320.998 430.478 320.357 430.353 319.77 430.087Z" fill="#2B303F"/>
<path d="M336.21 439.577L324.57 432.857C323.62 432.307 323.74 431.347 324.83 430.717L335.96 424.297C336.522 423.984 337.149 423.808 337.792 423.782C338.435 423.756 339.074 423.881 339.66 424.147L351.31 430.867C352.31 431.417 352.14 432.377 351.04 433.007L339.96 439.427C339.391 439.746 338.755 439.926 338.103 439.953C337.451 439.979 336.802 439.85 336.21 439.577Z" fill="#2B303F"/>
<path d="M167.57 342.217L151.69 333.047C150.74 332.497 150.86 331.537 151.96 330.907L163.07 324.487C163.634 324.174 164.263 323.998 164.907 323.972C165.551 323.946 166.193 324.071 166.78 324.337L182.66 333.507C183.66 334.057 183.49 335.007 182.39 335.647L171.28 342.057C170.718 342.374 170.089 342.553 169.444 342.581C168.799 342.609 168.157 342.484 167.57 342.217Z" fill="#2B303F"/>
<path d="M270.46 401.617L254.58 392.447C253.58 391.897 253.75 390.937 254.84 390.307L265.96 383.887C266.522 383.574 267.15 383.398 267.792 383.372C268.435 383.345 269.075 383.471 269.66 383.737L285.54 392.907C286.49 393.457 286.37 394.407 285.28 395.047L274.16 401.457C273.6 401.773 272.972 401.953 272.329 401.981C271.686 402.009 271.046 401.884 270.46 401.617Z" fill="#2B303F"/>
<path d="M249.78 389.677L172.37 344.997C171.42 344.447 171.54 343.487 172.63 342.857L183.75 336.437C184.312 336.124 184.94 335.947 185.582 335.921C186.225 335.895 186.865 336.02 187.45 336.287L264.87 380.997C265.82 381.547 265.7 382.507 264.6 383.137L253.49 389.557C252.924 389.865 252.294 390.036 251.649 390.057C251.005 390.078 250.365 389.948 249.78 389.677Z" fill="#2B303F"/>
<path d="M174.85 309.517L163.21 302.797C162.26 302.247 162.38 301.287 163.48 300.657L174.59 294.237C175.152 293.924 175.78 293.748 176.422 293.722C177.065 293.696 177.705 293.821 178.29 294.087L189.96 300.807C190.96 301.357 190.79 302.317 189.69 302.947L178.58 309.367C178.014 309.683 177.381 309.861 176.733 309.887C176.085 309.913 175.44 309.787 174.85 309.517Z" fill="#2B303F"/>
<path d="M191.32 318.997L179.68 312.267C178.73 311.717 178.85 310.767 179.94 310.127L191.06 303.717C191.621 303.403 192.248 303.224 192.891 303.197C193.533 303.169 194.173 303.292 194.76 303.557L206.41 310.287C207.41 310.837 207.24 311.787 206.14 312.427L195.03 318.837C194.468 319.154 193.839 319.333 193.194 319.361C192.549 319.389 191.907 319.264 191.32 318.997Z" fill="#2B303F"/>
<path d="M207.79 328.527L196.14 321.807C195.14 321.257 195.31 320.297 196.41 319.667L207.52 313.247C208.084 312.934 208.713 312.757 209.357 312.731C210.002 312.705 210.643 312.831 211.23 313.097L222.87 319.817C223.87 320.367 223.71 321.327 222.61 321.957L211.5 328.377C210.936 328.69 210.307 328.866 209.663 328.892C209.019 328.918 208.377 328.793 207.79 328.527Z" fill="#2B303F"/>
<path d="M224.26 337.997L212.61 331.277C211.61 330.727 211.78 329.767 212.88 329.137L223.96 322.757C224.524 322.444 225.153 322.268 225.797 322.242C226.441 322.216 227.083 322.341 227.67 322.607L239.31 329.327C240.31 329.877 240.14 330.837 239.05 331.467L227.96 337.887C227.395 338.194 226.766 338.363 226.123 338.382C225.48 338.401 224.842 338.269 224.26 337.997Z" fill="#2B303F"/>
<path d="M240.72 347.547L229.08 340.827C228.08 340.277 228.25 339.317 229.34 338.687L240.46 332.267C241.022 331.954 241.65 331.777 242.292 331.751C242.935 331.725 243.575 331.85 244.16 332.117L255.81 338.837C256.81 339.387 256.64 340.347 255.54 340.977L244.43 347.397C243.866 347.71 243.237 347.886 242.593 347.912C241.949 347.938 241.307 347.813 240.72 347.547Z" fill="#2B303F"/>
<path d="M257.19 357.057L245.55 350.327C244.55 349.777 244.71 348.827 245.81 348.187L256.96 341.777C257.522 341.46 258.151 341.281 258.796 341.253C259.441 341.225 260.083 341.35 260.67 341.617L272.32 348.347C273.27 348.897 273.15 349.847 272.05 350.487L260.94 356.897C260.373 357.22 259.737 357.403 259.085 357.431C258.432 357.459 257.783 357.331 257.19 357.057Z" fill="#2B303F"/>
<path d="M273.66 366.557L262.01 359.837C261.06 359.287 261.18 358.327 262.28 357.697L273.39 351.277C273.954 350.964 274.583 350.788 275.227 350.762C275.871 350.736 276.513 350.861 277.1 351.127L288.74 357.847C289.74 358.397 289.57 359.357 288.48 359.987L277.36 366.407C276.798 366.72 276.17 366.896 275.528 366.922C274.885 366.948 274.245 366.823 273.66 366.557Z" fill="#2B303F"/>
<path d="M290.13 376.067L278.48 369.347C277.53 368.797 277.65 367.837 278.75 367.207L289.86 360.787C290.424 360.474 291.053 360.297 291.697 360.271C292.341 360.245 292.983 360.371 293.57 360.637L305.21 367.357C306.16 367.907 306.04 368.867 304.94 369.497L293.83 375.917C293.268 376.23 292.641 376.406 291.998 376.432C291.355 376.458 290.716 376.333 290.13 376.067Z" fill="#2B303F"/>
<path d="M306.59 385.577L294.96 378.857C294.01 378.307 294.13 377.347 295.22 376.717L306.34 370.297C306.902 369.984 307.53 369.808 308.172 369.782C308.815 369.756 309.455 369.881 310.04 370.147L321.69 376.867C322.64 377.417 322.52 378.377 321.42 379.007L310.31 385.427C309.745 385.741 309.114 385.919 308.468 385.945C307.822 385.971 307.179 385.845 306.59 385.577Z" fill="#2B303F"/>
<path d="M323.06 395.087L311.41 388.357C310.46 387.807 310.58 386.857 311.68 386.217L322.79 379.807C323.352 379.49 323.981 379.31 324.626 379.283C325.271 379.255 325.913 379.38 326.5 379.647L338.15 386.377C339.1 386.917 338.98 387.877 337.88 388.517L326.77 394.927C326.207 395.241 325.578 395.419 324.934 395.447C324.29 395.475 323.648 395.352 323.06 395.087Z" fill="#2B303F"/>
<path d="M339.53 404.587L327.88 397.867C326.93 397.317 327.05 396.357 328.15 395.727L339.26 389.307C339.824 388.994 340.453 388.818 341.097 388.791C341.741 388.765 342.383 388.891 342.97 389.157L354.61 395.877C355.61 396.427 355.44 397.387 354.35 398.017L343.23 404.437C342.668 404.75 342.04 404.926 341.398 404.952C340.755 404.978 340.115 404.853 339.53 404.587Z" fill="#2B303F"/>
<path d="M355.96 414.097L344.32 407.377C343.37 406.827 343.49 405.867 344.59 405.237L355.7 398.817C356.262 398.504 356.889 398.328 357.532 398.302C358.175 398.276 358.814 398.401 359.4 398.667L371.05 405.387C372 405.937 371.88 406.897 370.78 407.527L359.7 413.997C359.128 414.307 358.492 414.477 357.842 414.495C357.192 414.512 356.547 414.376 355.96 414.097Z" fill="#2B303F"/>
<path d="M158.39 299.997L134.3 286.097C133.3 285.547 133.47 284.587 134.57 283.957L145.68 277.537C146.244 277.224 146.873 277.047 147.517 277.021C148.161 276.995 148.803 277.121 149.39 277.387L173.47 291.287C174.47 291.837 174.3 292.797 173.21 293.427L162.09 299.847C161.528 300.16 160.9 300.336 160.258 300.362C159.615 300.388 158.975 300.263 158.39 299.997Z" fill="#2B303F"/>
<path d="M150.7 313.997L139.06 307.297C138.11 306.747 138.22 305.797 139.32 305.157L150.43 298.747C150.992 298.43 151.621 298.25 152.266 298.223C152.911 298.195 153.553 298.32 154.14 298.587L165.79 305.317C166.74 305.857 166.62 306.817 165.52 307.457L154.41 313.867C153.845 314.176 153.215 314.349 152.57 314.372C151.926 314.395 151.286 314.266 150.7 313.997Z" fill="#2B303F"/>
<path d="M167.17 323.527L155.52 316.807C154.57 316.257 154.69 315.297 155.79 314.667L166.9 308.247C167.464 307.934 168.093 307.757 168.737 307.731C169.382 307.705 170.023 307.831 170.61 308.097L182.25 314.817C183.25 315.367 183.08 316.327 181.99 316.957L170.87 323.377C170.308 323.69 169.681 323.866 169.038 323.892C168.395 323.918 167.756 323.793 167.17 323.527Z" fill="#2B303F"/>
<path d="M183.63 332.997L171.96 326.307C170.96 325.757 171.13 324.807 172.23 324.167L183.34 317.757C183.903 317.442 184.532 317.264 185.176 317.236C185.82 317.208 186.462 317.332 187.05 317.597L198.7 324.327C199.7 324.877 199.53 325.827 198.43 326.467L187.32 332.877C186.757 333.184 186.13 333.355 185.489 333.376C184.848 333.396 184.212 333.267 183.63 332.997Z" fill="#2B303F"/>
<path d="M200.09 342.537L188.45 335.817C187.45 335.267 187.62 334.307 188.72 333.677L199.83 327.257C200.392 326.944 201.02 326.768 201.662 326.742C202.305 326.716 202.945 326.841 203.53 327.107L215.18 333.827C216.13 334.377 216.01 335.337 214.91 335.967L203.8 342.387C203.236 342.7 202.607 342.876 201.963 342.902C201.319 342.928 200.677 342.803 200.09 342.537Z" fill="#2B303F"/>
<path d="M216.56 352.047L204.96 345.327C204.01 344.777 204.13 343.817 205.23 343.187L216.34 336.767C216.904 336.454 217.533 336.277 218.177 336.251C218.821 336.225 219.463 336.351 220.05 336.617L231.69 343.337C232.64 343.887 232.53 344.847 231.43 345.477L220.32 351.887C219.752 352.212 219.114 352.396 218.459 352.424C217.805 352.452 217.154 352.322 216.56 352.047Z" fill="#2B303F"/>
<path d="M233.02 361.547L221.38 354.827C220.43 354.277 220.55 353.317 221.64 352.687L232.76 346.267C233.322 345.954 233.949 345.777 234.592 345.751C235.235 345.725 235.874 345.85 236.46 346.117L248.11 352.837C249.06 353.387 248.94 354.347 247.84 354.977L236.73 361.397C236.166 361.71 235.537 361.886 234.893 361.912C234.248 361.938 233.607 361.813 233.02 361.547Z" fill="#2B303F"/>
<path d="M249.49 371.057L237.84 364.337C236.89 363.787 237.01 362.827 238.11 362.197L249.22 355.777C249.784 355.464 250.413 355.288 251.057 355.262C251.701 355.236 252.343 355.361 252.93 355.627L264.57 362.347C265.52 362.897 265.4 363.857 264.31 364.487L253.2 370.907C252.636 371.22 252.007 371.397 251.363 371.423C250.718 371.449 250.077 371.323 249.49 371.057Z" fill="#2B303F"/>
<path d="M265.96 380.567L254.32 373.837C253.37 373.287 253.49 372.337 254.58 371.697L265.7 365.287C266.26 364.97 266.888 364.791 267.531 364.763C268.174 364.735 268.814 364.86 269.4 365.127L281.05 371.857C282 372.397 281.88 373.357 280.78 373.997L269.67 380.407C269.107 380.722 268.478 380.9 267.834 380.928C267.19 380.955 266.548 380.832 265.96 380.567Z" fill="#2B303F"/>
<path d="M282.42 390.067L270.77 383.347C269.82 382.797 269.94 381.837 271.04 381.207L282.15 374.787C282.714 374.474 283.343 374.297 283.987 374.271C284.632 374.245 285.273 374.371 285.86 374.637L297.5 381.357C298.45 381.907 298.33 382.867 297.24 383.497L286.12 389.917C285.558 390.23 284.931 390.406 284.288 390.432C283.645 390.458 283.006 390.333 282.42 390.067Z" fill="#2B303F"/>
<path d="M298.88 399.577L287.24 392.847C286.29 392.307 286.41 391.347 287.5 390.707L298.62 384.297C299.181 383.982 299.808 383.804 300.451 383.776C301.093 383.749 301.734 383.872 302.32 384.137L313.96 390.867C314.91 391.417 314.79 392.367 313.69 393.007L302.58 399.417C302.019 399.732 301.392 399.91 300.749 399.938C300.106 399.966 299.466 399.842 298.88 399.577Z" fill="#2B303F"/>
<path d="M315.35 409.077L303.7 402.357C302.75 401.807 302.87 400.847 303.97 400.217L315.08 393.797C315.644 393.484 316.273 393.308 316.917 393.282C317.561 393.256 318.203 393.381 318.79 393.647L330.43 400.367C331.38 400.917 331.26 401.877 330.17 402.507L319.05 408.927C318.488 409.24 317.86 409.416 317.218 409.442C316.575 409.468 315.935 409.343 315.35 409.077Z" fill="#2B303F"/>
<path d="M352.19 430.357L320.19 411.867C319.24 411.317 319.35 410.357 320.45 409.727L331.56 403.307C332.124 402.994 332.753 402.818 333.397 402.791C334.041 402.765 334.683 402.891 335.27 403.157L367.27 421.647C368.22 422.187 368.1 423.147 367 423.787L355.89 430.197C355.328 430.51 354.701 430.687 354.059 430.715C353.417 430.743 352.777 430.62 352.19 430.357Z" fill="#2B303F"/>
<path d="M134.24 304.517L118.36 295.347C117.36 294.797 117.53 293.837 118.62 293.207L129.74 286.797C130.3 286.48 130.927 286.301 131.571 286.273C132.214 286.245 132.854 286.37 133.44 286.637L149.32 295.807C150.27 296.357 150.15 297.317 149.06 297.947L137.96 304.367C137.395 304.683 136.764 304.861 136.118 304.887C135.471 304.913 134.828 304.786 134.24 304.517Z" fill="#2B303F"/>
<path d="M416.67 393.127L182.83 258.127C181.83 257.587 182 256.627 183.1 255.987L188.66 252.787C189.221 252.473 189.848 252.294 190.491 252.267C191.134 252.239 191.774 252.362 192.36 252.627L426.2 387.627C427.15 388.177 427.03 389.127 425.93 389.767L420.38 392.997C419.815 393.307 419.185 393.48 418.54 393.502C417.896 393.525 417.256 393.396 416.67 393.127Z" fill="#2B303F"/>
<path d="M271.81 408.477C271.476 409.205 270.905 409.797 270.19 410.157L205.85 447.307C204.767 447.909 203.558 448.249 202.32 448.299C201.081 448.35 199.849 448.109 198.72 447.597L88.7202 384.107C88.2501 383.863 87.8713 383.474 87.6402 382.997C87.2402 381.997 87.8002 380.887 89.2602 380.047L153.61 342.887C154.693 342.285 155.903 341.945 157.141 341.895C158.379 341.844 159.612 342.085 160.74 342.597L270.74 406.087C271.185 406.28 271.541 406.632 271.739 407.074C271.937 407.517 271.963 408.017 271.81 408.477Z" fill="#B1B4C4"/>
<path d="M271.81 408.477C271.476 409.204 270.905 409.797 270.19 410.157L205.85 447.307C204.767 447.909 203.558 448.249 202.32 448.299C201.081 448.35 199.849 448.109 198.72 447.597L88.7201 384.107C88.25 383.863 87.8712 383.474 87.6401 382.997C87.981 382.277 88.5506 381.69 89.2601 381.327L153.61 344.177C154.693 343.574 155.901 343.233 157.14 343.181C158.378 343.129 159.611 343.367 160.74 343.877L270.74 407.377C271.207 407.617 271.583 408.004 271.81 408.477Z" fill="#C3C6D1"/>
<path d="M434.47 382.887L200.63 247.887C200.115 247.506 199.696 247.01 199.406 246.439C199.116 245.868 198.963 245.237 198.96 244.597V241.847C198.96 240.577 199.73 239.997 200.68 240.547L434.52 375.547C435.044 375.92 435.473 376.412 435.771 376.982C436.07 377.551 436.231 378.184 436.24 378.827V381.577C436.19 382.857 435.42 383.437 434.47 382.887Z" fill="#2B303F"/>
<path d="M235.96 234.557L212.86 221.247C209.97 219.577 207.62 215.087 207.62 211.247V186.477C207.62 182.617 209.97 180.847 212.86 182.477L235.96 195.827C238.86 197.497 241.2 201.987 241.2 205.827V230.597C241.16 234.457 238.82 236.227 235.96 234.557Z" fill="#E9EAF2"/>
<path d="M235.87 177.827L212.81 164.517C209.92 162.847 207.57 156.017 207.57 152.677V123.757C207.57 119.897 209.92 118.127 212.81 119.757L235.87 133.067C238.77 134.737 241.11 139.227 241.11 143.067V171.987C241.11 175.387 238.77 179.497 235.87 177.827Z" fill="#E9EAF2"/>
<path d="M224.47 158.507C219.78 155.797 215.96 149.177 215.96 143.757C215.96 138.337 219.78 136.127 224.47 138.837C229.16 141.547 232.99 148.167 232.99 153.587C232.99 159.007 229.17 161.217 224.47 158.507ZM224.47 141.357C220.98 139.357 218.14 140.987 218.14 145.017C218.254 147.219 218.887 149.364 219.987 151.275C221.087 153.187 222.623 154.811 224.47 156.017C227.97 158.017 230.81 156.397 230.81 152.367C230.696 150.162 230.063 148.015 228.961 146.101C227.859 144.188 226.32 142.562 224.47 141.357Z" fill="#50838E"/>
<path d="M226.81 154.497L222.95 148.357V143.247L225.13 144.507V148.477L228.25 153.427L226.81 154.497Z" fill="#50838E"/>
<path d="M235.84 116.657L212.78 103.347C209.89 101.667 207.54 94.1467 207.54 90.7967V64.1767C207.54 60.8367 209.89 59.4767 212.78 61.1767L235.84 74.4967C237.366 75.4893 238.636 76.8281 239.546 78.4042C240.457 79.9803 240.982 81.7491 241.08 83.5667V110.197C241.08 113.507 238.74 118.327 235.84 116.657Z" fill="#E9EAF2"/>
<path d="M224.31 84.7469C222.92 83.9469 221.8 84.5969 221.8 86.2069C221.846 87.0785 222.098 87.9268 222.534 88.6827C222.97 89.4386 223.579 90.0808 224.31 90.5569C225.7 91.3569 226.83 90.7069 226.83 89.1069C226.78 88.2337 226.526 87.3843 226.089 86.6271C225.651 85.8699 225.042 85.2259 224.31 84.7469ZM231.02 85.7469L229.02 84.5869C228.696 84.3659 228.462 84.0359 228.36 83.6569L227.84 81.5469C227.731 81.1687 227.494 80.84 227.17 80.6169L221.47 77.3269C221.19 77.1669 220.9 77.2369 220.81 77.4969L220.29 78.9969C220.264 79.0575 220.225 79.1113 220.175 79.1542C220.125 79.1971 220.066 79.228 220.002 79.2444C219.938 79.2608 219.871 79.2624 219.807 79.2489C219.742 79.2355 219.682 79.2075 219.63 79.1669L217.63 78.0069C216.71 77.4669 215.96 77.9069 215.96 79.0069V87.7269C215.992 88.3074 216.159 88.8722 216.449 89.3759C216.739 89.8797 217.144 90.3082 217.63 90.6269L231.05 98.3769C231.97 98.9069 232.73 98.4769 232.73 97.3769V88.6269C232.694 88.0416 232.52 87.4731 232.223 86.9675C231.926 86.4618 231.514 86.0334 231.02 85.7169V85.7469ZM224.31 92.5269C223.091 91.7298 222.077 90.6575 221.35 89.3964C220.622 88.1353 220.201 86.7208 220.12 85.2669C220.12 82.5869 222 81.5069 224.31 82.8469C225.531 83.6411 226.547 84.7128 227.276 85.9745C228.004 87.2362 228.423 88.6522 228.5 90.1069C228.5 92.7469 226.63 93.8369 224.31 92.4969V92.5269ZM230.43 88.6969C230.262 88.5874 230.121 88.4399 230.021 88.2662C229.92 88.0924 229.861 87.8974 229.85 87.6969C229.85 87.3169 230.11 87.1669 230.43 87.3569C230.6 87.4653 230.742 87.6124 230.845 87.7862C230.947 87.96 231.007 88.1556 231.02 88.3569C231.02 88.7069 230.76 88.8569 230.43 88.6669V88.6969Z" fill="#50838E"/>
<path d="M231.59 210.347C231.59 214.857 224.52 220.717 224.52 220.717C224.52 220.717 217.44 206.717 217.44 202.177C217.44 197.637 220.61 195.837 224.52 198.087C226.579 199.431 228.292 201.242 229.52 203.372C230.748 205.502 231.457 207.892 231.59 210.347Z" fill="#50838E"/>
<path d="M227.79 211.619C229.598 210.575 229.599 207.193 227.793 204.065C225.987 200.937 223.058 199.247 221.25 200.291C219.442 201.335 219.44 204.717 221.246 207.845C223.052 210.973 225.982 212.663 227.79 211.619Z" fill="#E9EAF2"/>
<path d="M399.09 270.997L259.48 190.387C257.12 189.037 255.22 185.387 255.22 182.257V88.4267C255.22 85.2967 257.12 83.8567 259.48 85.2167L399.09 165.817C401.44 167.177 403.34 170.817 403.34 173.957V267.777C403.34 270.917 401.44 272.357 399.09 270.997Z" fill="#E9EAF2"/>
<path d="M382.96 202.787L274.75 140.317C272.13 138.797 270 134.737 270 131.247V124.177C270 120.677 272.13 119.077 274.75 120.587L382.96 183.057C385.58 184.567 387.7 188.627 387.7 192.127V199.197C387.7 202.697 385.58 204.297 382.96 202.787Z" fill="white"/>
<path d="M324.11 200.597L274.75 172.097C272.13 170.587 270 166.527 270 163.027V155.997C270 152.497 272.13 150.897 274.75 152.407L324.11 180.907C326.73 182.417 328.85 186.477 328.85 189.977V196.997C328.85 200.497 326.73 202.107 324.11 200.597Z" fill="#50838E"/>
<path d="M427.82 291.637C427.82 291.637 375.19 303.237 332.64 255.977C290.09 208.717 255.38 214.777 255.38 214.777V244.277L427.82 343.827V291.637Z" fill="url(#paint1_linear_937_9)"/>
<path d="M427.82 291.637C427.82 291.637 375.19 303.237 332.64 255.977C290.09 208.717 255.38 214.777 255.38 214.777" stroke="#CCCEDD" stroke-width="1.06" stroke-miterlimit="10"/>
<path d="M255.15 44.3969C253.611 47.1485 251.741 49.7009 249.58 51.9969C248.98 52.6969 244.35 50.9269 245.32 50.4269C246.29 49.9269 249.32 45.7069 250.84 42.8869C252.112 39.5202 253.193 36.0848 254.08 32.5969C255.03 29.1469 255.85 24.0869 256.55 21.7069C256.729 20.8278 257.158 20.0192 257.787 19.3787C258.415 18.7382 259.215 18.293 260.09 18.0969C261.76 17.7069 262.84 18.1669 262.53 20.1869C261.96 23.7069 259.23 37.4469 255.15 44.3969Z" fill="#FFCEA9"/>
<path d="M257.8 98.2473C256.37 99.4173 254.25 98.3473 254.14 98.4573C252.455 100.019 250.689 101.491 248.85 102.867C247.95 103.567 246.56 104.507 246.85 105.867C247.3 108.277 251.17 107.537 252.63 106.797C254.09 106.057 255.29 104.797 256.63 103.977C257.63 103.357 258.63 103.047 258.74 101.797C258.83 101.047 258.06 98.2173 257.8 98.2473Z" fill="#38226D"/>
<path d="M258.72 101.297C258.53 102.487 257.57 102.817 256.59 103.427C255.19 104.297 253.95 105.557 252.49 106.297C251.03 107.037 247.78 107.657 246.83 105.927C247.34 108.257 251.15 107.527 252.59 106.797C254.03 106.067 255.25 104.797 256.59 103.977C257.59 103.357 258.59 103.047 258.7 101.797C258.72 101.631 258.727 101.464 258.72 101.297Z" fill="#9C73FF"/>
<path d="M243.24 89.8572C241.81 91.0272 239.3 89.7572 239.19 89.8572C237.7 91.3742 236.121 92.8001 234.46 94.1272C233.56 94.8372 232.17 95.7772 232.46 97.1272C232.91 99.5472 236.78 98.8072 238.25 98.0672C239.72 97.3272 240.9 96.0672 242.25 95.2372C243.25 94.6272 244.25 94.3072 244.36 93.0672C244.44 92.3172 243.5 89.8272 243.24 89.8572Z" fill="#38226D"/>
<path d="M244.31 92.7373C244.12 93.9273 243.16 94.2573 242.18 94.8673C240.78 95.7373 239.54 96.9973 238.08 97.7373C236.62 98.4773 233.36 99.0973 232.42 97.3673C232.93 99.6973 236.73 98.9673 238.18 98.2373C239.63 97.5073 240.83 96.2373 242.18 95.4073C243.18 94.7973 244.18 94.4873 244.29 93.2373C244.31 93.0715 244.317 92.9042 244.31 92.7373Z" fill="#9C73FF"/>
<path d="M276.96 52.2371C278.55 62.1771 274.14 65.8871 268.4 67.9971C264.28 69.5171 258.4 71.8571 258.4 71.8571C258.4 71.8571 258.48 74.0371 258.52 78.9271C258.52 83.2371 258 98.9271 258 98.9271C257.319 99.2771 256.565 99.4597 255.8 99.4597C255.035 99.4597 254.28 99.2771 253.6 98.9271C253.6 98.9271 251.29 86.8771 250.8 81.4371C250.13 74.0671 249 69.2371 249.38 67.6471C249.71 66.2471 257.77 62.2871 260.33 60.1671L243.44 65.8271C243.776 67.6578 243.94 69.5159 243.93 71.3771C243.78 77.2271 243.45 89.8971 243.45 89.8971C243.45 89.8971 241.14 91.5671 239.16 89.8971C239.16 89.8971 234.91 64.8271 235.43 61.5071C235.92 58.3571 250.8 51.9171 253.43 49.6971C253.887 49.3257 254.417 49.0546 254.985 48.9012C255.554 48.7479 256.148 48.7158 256.73 48.8071L276.96 52.2371Z" fill="#77ABB7"/>
<path d="M236.5 56.3771L247.85 49.8271C247.948 49.768 248.06 49.7368 248.175 49.7368C248.29 49.7368 248.402 49.768 248.5 49.8271L268.4 61.3171L256.73 68.0571L236.5 56.3771Z" fill="#F4F4F4"/>
<path d="M257.26 65.6471L258.13 66.1471C258.2 66.1471 258.19 66.2571 258.13 66.3071L257.3 66.7871C257.258 66.8067 257.212 66.8169 257.165 66.8169C257.118 66.8169 257.072 66.8067 257.03 66.7871L256.16 66.2871C256.09 66.2871 256.1 66.1771 256.16 66.1271L256.99 65.6471C257.032 65.6274 257.079 65.6172 257.125 65.6172C257.172 65.6172 257.218 65.6274 257.26 65.6471Z" fill="#3A2C6D"/>
<path d="M256.04 64.997L256.9 65.487C256.97 65.487 256.96 65.607 256.9 65.647L256.08 66.127C256.037 66.149 255.989 66.1604 255.94 66.1604C255.891 66.1604 255.843 66.149 255.8 66.127L254.94 65.627C254.87 65.627 254.88 65.517 254.94 65.467L255.76 64.997C255.803 64.9724 255.851 64.9595 255.9 64.9595C255.949 64.9595 255.997 64.9724 256.04 64.997Z" fill="#3A2C6D"/>
<path d="M254.8 64.2271L255.66 64.7271C255.73 64.7271 255.73 64.8371 255.66 64.8871L254.84 65.3571C254.797 65.3791 254.749 65.3905 254.7 65.3905C254.652 65.3905 254.604 65.3791 254.56 65.3571L253.7 64.8571C253.63 64.8571 253.64 64.7471 253.7 64.6971L254.52 64.2171C254.564 64.1967 254.613 64.1869 254.661 64.1887C254.71 64.1904 254.758 64.2036 254.8 64.2271Z" fill="#3A2C6D"/>
<path d="M253.59 63.5272L254.45 64.0272C254.52 64.0272 254.52 64.1372 254.45 64.1872L253.63 64.6672C253.586 64.6871 253.539 64.6974 253.49 64.6974C253.442 64.6974 253.394 64.6871 253.35 64.6672L252.49 64.1672C252.42 64.1672 252.43 64.0572 252.49 64.0072L253.31 63.5272C253.354 63.5073 253.402 63.4971 253.45 63.4971C253.499 63.4971 253.546 63.5073 253.59 63.5272Z" fill="#3A2C6D"/>
<path d="M252.36 62.8171L253.23 63.3171C253.3 63.3171 253.29 63.4371 253.23 63.4771L252.4 63.9571C252.359 63.979 252.312 63.9905 252.265 63.9905C252.218 63.9905 252.172 63.979 252.13 63.9571L251.26 63.4571C251.19 63.4571 251.2 63.3471 251.26 63.2971L252.09 62.8271C252.131 62.8037 252.177 62.7905 252.224 62.7888C252.271 62.787 252.318 62.7968 252.36 62.8171Z" fill="#3A2C6D"/>
<path d="M251.14 62.1168L252.01 62.6168C252.08 62.6168 252.07 62.7268 252.01 62.7768L251.18 63.2468C251.138 63.2687 251.092 63.2802 251.045 63.2802C250.998 63.2802 250.952 63.2687 250.91 63.2468L250.04 62.7468C249.97 62.7468 249.98 62.6368 250.04 62.5968L250.87 62.1168C250.912 62.0949 250.958 62.0835 251.005 62.0835C251.052 62.0835 251.098 62.0949 251.14 62.1168Z" fill="#3A2C6D"/>
<path d="M249.96 61.4071L250.82 61.9071C250.89 61.9071 250.88 62.0171 250.82 62.0671L250 62.5471C249.956 62.567 249.908 62.5773 249.86 62.5773C249.812 62.5773 249.764 62.567 249.72 62.5471L248.86 62.0471C248.79 62.0471 248.79 61.9371 248.86 61.8871L249.68 61.4071C249.724 61.3872 249.772 61.377 249.82 61.377C249.868 61.377 249.916 61.3872 249.96 61.4071Z" fill="#3A2C6D"/>
<path d="M248.69 60.697L249.56 61.197C249.63 61.197 249.62 61.317 249.56 61.357L248.73 61.837C248.689 61.8589 248.642 61.8704 248.595 61.8704C248.548 61.8704 248.502 61.8589 248.46 61.837L247.59 61.337C247.52 61.337 247.53 61.227 247.59 61.177L248.42 60.707C248.461 60.6836 248.507 60.6704 248.554 60.6687C248.601 60.6669 248.648 60.6767 248.69 60.697Z" fill="#3A2C6D"/>
<path d="M247.47 59.9968L248.33 60.4968C248.4 60.4968 248.39 60.6068 248.33 60.6568L247.51 61.1268C247.467 61.1488 247.419 61.1602 247.37 61.1602C247.321 61.1602 247.274 61.1488 247.23 61.1268L246.37 60.6268C246.3 60.6268 246.31 60.5168 246.37 60.4768L247.19 59.9968C247.234 59.9748 247.281 59.9634 247.33 59.9634C247.379 59.9634 247.427 59.9748 247.47 59.9968Z" fill="#3A2C6D"/>
<path d="M246.24 59.2872L247.11 59.7872C247.18 59.7872 247.17 59.8972 247.11 59.9472L246.28 60.4272C246.238 60.4469 246.192 60.4571 246.145 60.4571C246.098 60.4571 246.052 60.4469 246.01 60.4272L245.14 59.9272C245.07 59.9272 245.08 59.8172 245.14 59.7672L245.97 59.2872C246.012 59.2653 246.058 59.2539 246.105 59.2539C246.152 59.2539 246.199 59.2653 246.24 59.2872Z" fill="#3A2C6D"/>
<path d="M245.02 58.577L245.88 59.077C245.95 59.077 245.95 59.187 245.88 59.237L245.06 59.717C245.017 59.7389 244.969 59.7504 244.92 59.7504C244.871 59.7504 244.823 59.7389 244.78 59.717L243.92 59.217C243.85 59.217 243.86 59.107 243.92 59.057L244.74 58.587C244.783 58.5634 244.83 58.5503 244.879 58.5485C244.927 58.5468 244.976 58.5565 245.02 58.577Z" fill="#3A2C6D"/>
<path d="M243.8 57.8772L244.66 58.3772C244.73 58.3772 244.72 58.4872 244.66 58.5372L243.83 59.0072C243.788 59.0291 243.742 59.0405 243.695 59.0405C243.648 59.0405 243.602 59.0291 243.56 59.0072L242.69 58.5072C242.62 58.5072 242.63 58.3972 242.69 58.3472L243.52 57.8772C243.563 57.8552 243.611 57.8438 243.66 57.8438C243.709 57.8438 243.757 57.8552 243.8 57.8772Z" fill="#3A2C6D"/>
<path d="M242.57 57.167L243.44 57.667C243.51 57.667 243.5 57.777 243.44 57.827L242.61 58.297C242.569 58.3189 242.522 58.3303 242.475 58.3303C242.428 58.3303 242.382 58.3189 242.34 58.297L241.47 57.797C241.4 57.797 241.41 57.677 241.47 57.637L242.3 57.157C242.343 57.1366 242.389 57.1269 242.436 57.1286C242.483 57.1304 242.529 57.1435 242.57 57.167Z" fill="#3A2C6D"/>
<path d="M240.76 56.1171L242.21 56.9571C242.28 56.9571 242.27 57.0671 242.21 57.1171L241.39 57.5971C241.346 57.617 241.298 57.6272 241.25 57.6272C241.202 57.6272 241.154 57.617 241.11 57.5971L239.66 56.7571C239.59 56.7571 239.59 56.6471 239.66 56.5971L240.48 56.1171C240.524 56.0972 240.572 56.0869 240.62 56.0869C240.668 56.0869 240.716 56.0972 240.76 56.1171Z" fill="#3A2C6D"/>
<path d="M256.63 63.9171L257.5 64.4171C257.57 64.4171 257.56 64.5271 257.5 64.5771L256.67 65.0471C256.63 65.0719 256.583 65.0849 256.535 65.0849C256.488 65.0849 256.441 65.0719 256.4 65.0471L255.53 64.5571C255.46 64.5571 255.47 64.4371 255.53 64.3971L256.36 63.9171C256.402 63.8952 256.448 63.8838 256.495 63.8838C256.542 63.8838 256.589 63.8952 256.63 63.9171Z" fill="#3A2C6D"/>
<path d="M255.41 63.2072L256.27 63.7072C256.34 63.7072 256.33 63.8172 256.27 63.8672L255.45 64.3472C255.406 64.3671 255.359 64.3774 255.31 64.3774C255.262 64.3774 255.214 64.3671 255.17 64.3472L254.31 63.8472C254.24 63.8472 254.24 63.7372 254.31 63.6872L255.13 63.2072C255.174 63.1853 255.222 63.1738 255.27 63.1738C255.319 63.1738 255.367 63.1853 255.41 63.2072Z" fill="#3A2C6D"/>
<path d="M254.18 62.497L255.04 62.997C255.12 62.997 255.11 63.107 255.04 63.157L254.22 63.637C254.176 63.6568 254.128 63.6671 254.08 63.6671C254.032 63.6671 253.984 63.6568 253.94 63.637L253.08 63.137C253.01 63.137 253.02 63.027 253.08 62.977L253.9 62.497C253.944 62.4771 253.992 62.4668 254.04 62.4668C254.088 62.4668 254.136 62.4771 254.18 62.497Z" fill="#3A2C6D"/>
<path d="M252.96 61.7869L253.83 62.2869C253.9 62.2869 253.89 62.4069 253.83 62.4469L253 62.9269C252.959 62.9488 252.912 62.9602 252.865 62.9602C252.818 62.9602 252.772 62.9488 252.73 62.9269L251.86 62.4269C251.79 62.4269 251.8 62.3169 251.86 62.2669L252.69 61.7969C252.731 61.7734 252.777 61.7602 252.824 61.7585C252.871 61.7568 252.918 61.7665 252.96 61.7869Z" fill="#3A2C6D"/>
<path d="M251.74 61.0868L252.6 61.5868C252.67 61.5868 252.66 61.6968 252.6 61.7468L251.78 62.2268C251.736 62.2467 251.688 62.257 251.64 62.257C251.592 62.257 251.544 62.2467 251.5 62.2268L250.64 61.7268C250.57 61.7268 250.57 61.6168 250.64 61.5668L251.46 61.0868C251.504 61.0669 251.552 61.0566 251.6 61.0566C251.648 61.0566 251.696 61.0669 251.74 61.0868Z" fill="#3A2C6D"/>
<path d="M250.51 60.3772L251.38 60.8772C251.45 60.8772 251.44 60.9972 251.38 61.0372L250.55 61.5172C250.509 61.5391 250.462 61.5505 250.415 61.5505C250.368 61.5505 250.322 61.5391 250.28 61.5172L249.41 61.0172C249.34 61.0172 249.35 60.9072 249.41 60.8572L250.24 60.3872C250.281 60.3637 250.327 60.3506 250.374 60.3488C250.421 60.3471 250.468 60.3568 250.51 60.3772Z" fill="#3A2C6D"/>
<path d="M249.28 59.6769L250.15 60.1769C250.22 60.1769 250.21 60.2869 250.15 60.3269L249.32 60.8069C249.279 60.8288 249.232 60.8402 249.185 60.8402C249.138 60.8402 249.092 60.8288 249.05 60.8069L248.18 60.3069C248.11 60.3069 248.12 60.1969 248.18 60.1469L249.01 59.6769C249.052 59.655 249.098 59.6436 249.145 59.6436C249.192 59.6436 249.239 59.655 249.28 59.6769Z" fill="#3A2C6D"/>
<path d="M248.06 58.9968L248.92 59.4968C248.99 59.4968 248.98 59.6068 248.92 59.6568L248.1 60.1268C248.057 60.1488 248.009 60.1602 247.96 60.1602C247.911 60.1602 247.863 60.1488 247.82 60.1268L246.96 59.6268C246.89 59.6268 246.9 59.5168 246.96 59.4768L247.78 58.9968C247.823 58.9748 247.871 58.9634 247.92 58.9634C247.969 58.9634 248.017 58.9748 248.06 58.9968Z" fill="#3A2C6D"/>
<path d="M246.83 58.2568L247.7 58.7568C247.77 58.7568 247.76 58.8668 247.7 58.9168L246.87 59.3868C246.828 59.4087 246.782 59.4202 246.735 59.4202C246.688 59.4202 246.642 59.4087 246.6 59.3868L245.73 58.8868C245.66 58.8868 245.67 58.7668 245.73 58.7268L246.56 58.2468C246.602 58.2265 246.649 58.2167 246.696 58.2185C246.743 58.2202 246.789 58.2334 246.83 58.2568Z" fill="#3A2C6D"/>
<path d="M245.61 57.5472L246.47 58.0472C246.54 58.0472 246.53 58.1572 246.47 58.2072L245.64 58.6872C245.598 58.7069 245.552 58.7171 245.505 58.7171C245.458 58.7171 245.412 58.7069 245.37 58.6872L244.5 58.1872C244.43 58.1872 244.44 58.0772 244.5 58.0272L245.33 57.5472C245.374 57.5274 245.422 57.5171 245.47 57.5171C245.518 57.5171 245.566 57.5274 245.61 57.5472Z" fill="#3A2C6D"/>
<path d="M244.38 56.8368L245.24 57.3368C245.31 57.3368 245.31 57.4468 245.24 57.4968L244.42 57.9768C244.377 57.9988 244.329 58.0102 244.28 58.0102C244.232 58.0102 244.184 57.9988 244.14 57.9768L243.28 57.4768C243.21 57.4768 243.22 57.3668 243.28 57.3168L244.1 56.8368C244.144 56.8169 244.192 56.8066 244.24 56.8066C244.289 56.8066 244.336 56.8169 244.38 56.8368Z" fill="#3A2C6D"/>
<path d="M243.15 56.1369L244.02 56.6269C244.09 56.6269 244.08 56.7469 244.02 56.7869L243.19 57.2669C243.149 57.2888 243.102 57.3003 243.055 57.3003C243.008 57.3003 242.962 57.2888 242.92 57.2669L242.05 56.7669C241.98 56.7669 241.99 56.6569 242.05 56.6069L242.88 56.1369C242.921 56.1122 242.968 56.0991 243.015 56.0991C243.063 56.0991 243.11 56.1122 243.15 56.1369Z" fill="#3A2C6D"/>
<path d="M257.86 64.6272L259.31 65.4672C259.38 65.4672 259.38 65.5772 259.31 65.6272L258.49 66.0972C258.447 66.1191 258.399 66.1306 258.35 66.1306C258.302 66.1306 258.254 66.1191 258.21 66.0972L256.76 65.2572C256.69 65.2572 256.7 65.1472 256.76 65.0972L257.58 64.6272C257.624 64.6052 257.672 64.5938 257.72 64.5938C257.769 64.5938 257.817 64.6052 257.86 64.6272Z" fill="#3A2C6D"/>
<path d="M240.82 56.077L241.68 56.577C241.721 56.5965 241.765 56.6066 241.81 56.6066C241.855 56.6066 241.9 56.5965 241.94 56.577L242.81 56.067C242.826 56.0613 242.839 56.051 242.848 56.0376C242.857 56.0242 242.862 56.0083 242.862 55.992C242.862 55.9756 242.857 55.9597 242.848 55.9463C242.839 55.9329 242.826 55.9226 242.81 55.917H242.74C242.68 55.917 242.68 55.827 242.74 55.787L243.66 55.257C243.74 55.257 243.74 55.147 243.66 55.107L243.11 54.787C243.07 54.7675 243.025 54.7573 242.98 54.7573C242.935 54.7573 242.891 54.7675 242.85 54.787L241.99 55.287L241.81 55.387L241.68 55.467L241.55 55.537L240.81 55.967C240.798 55.9831 240.791 56.0035 240.793 56.024C240.795 56.0444 240.805 56.0634 240.82 56.077Z" fill="#3A2C6D"/>
<path d="M261.96 62.9069L262.83 63.4069C262.9 63.4069 262.89 63.5169 262.83 63.5669L262 64.0369C261.96 64.0616 261.913 64.0747 261.865 64.0747C261.818 64.0747 261.771 64.0616 261.73 64.0369L260.86 63.5469C260.79 63.4969 260.8 63.4269 260.86 63.3869L261.69 62.9069C261.732 62.885 261.778 62.8735 261.825 62.8735C261.872 62.8735 261.919 62.885 261.96 62.9069Z" fill="#3A2C6D"/>
<path d="M260.78 62.197L261.65 62.697C261.72 62.697 261.71 62.817 261.65 62.857L260.82 63.337C260.779 63.3589 260.732 63.3704 260.685 63.3704C260.638 63.3704 260.592 63.3589 260.55 63.337L259.68 62.837C259.61 62.837 259.62 62.727 259.68 62.677L260.51 62.207C260.551 62.1836 260.597 62.1704 260.644 62.1687C260.691 62.1669 260.738 62.1767 260.78 62.197Z" fill="#3A2C6D"/>
<path d="M259.56 61.4971L260.43 61.9971C260.5 61.9971 260.49 62.1071 260.43 62.1571L259.6 62.6271C259.558 62.649 259.512 62.6604 259.465 62.6604C259.418 62.6604 259.372 62.649 259.33 62.6271L258.46 62.1271C258.39 62.1271 258.4 62.0071 258.46 61.9671L259.29 61.4871C259.332 61.4667 259.379 61.457 259.426 61.4587C259.473 61.4604 259.519 61.4736 259.56 61.4971Z" fill="#3A2C6D"/>
<path d="M249.17 55.4968L250.03 55.9968C250.1 55.9968 250.09 56.1068 250.03 56.1568L249.21 56.6268C249.167 56.6488 249.119 56.6602 249.07 56.6602C249.021 56.6602 248.973 56.6488 248.93 56.6268L248.07 56.1268C247.99 56.1268 248 56.0168 248.07 55.9668L248.89 55.4968C248.933 55.4748 248.981 55.4634 249.03 55.4634C249.079 55.4634 249.127 55.4748 249.17 55.4968Z" fill="#3A2C6D"/>
<path d="M247.96 54.7872L248.83 55.2872C248.9 55.2872 248.89 55.3972 248.83 55.4472L248 55.9272C247.958 55.9469 247.912 55.9571 247.865 55.9571C247.819 55.9571 247.773 55.9469 247.73 55.9272L246.86 55.4272C246.79 55.4272 246.8 55.3172 246.86 55.2672L247.69 54.7872C247.733 54.7675 247.779 54.7573 247.825 54.7573C247.872 54.7573 247.918 54.7675 247.96 54.7872Z" fill="#3A2C6D"/>
<path d="M246.72 54.0871L247.59 54.5871C247.66 54.5871 247.65 54.6971 247.59 54.7471L246.76 55.2171C246.718 55.2389 246.672 55.2504 246.625 55.2504C246.578 55.2504 246.532 55.2389 246.49 55.2171L245.62 54.7171C245.55 54.7171 245.56 54.6071 245.62 54.5671L246.45 54.0871C246.492 54.0652 246.538 54.0537 246.585 54.0537C246.632 54.0537 246.678 54.0652 246.72 54.0871Z" fill="#3A2C6D"/>
<path d="M245.5 53.377L246.37 53.877C246.44 53.877 246.43 53.987 246.37 54.037L245.54 54.517C245.498 54.5367 245.452 54.5469 245.405 54.5469C245.358 54.5469 245.312 54.5367 245.27 54.517L244.4 54.017C244.33 54.017 244.34 53.907 244.4 53.857L245.23 53.377C245.272 53.3574 245.318 53.3472 245.365 53.3472C245.412 53.3472 245.458 53.3574 245.5 53.377Z" fill="#3A2C6D"/>
<path d="M258.03 60.607L259.21 61.287C259.28 61.287 259.27 61.407 259.21 61.447L258.38 61.927C258.339 61.9489 258.292 61.9603 258.245 61.9603C258.198 61.9603 258.152 61.9489 258.11 61.927L256.96 61.257C256.89 61.257 256.89 61.147 256.96 61.097L257.78 60.617C257.859 60.582 257.949 60.5784 258.03 60.607Z" fill="#3A2C6D"/>
<path d="M250.39 56.1972L251.57 56.8772C251.64 56.8772 251.63 56.9872 251.57 57.0372L250.74 57.5172C250.698 57.5368 250.652 57.547 250.605 57.547C250.559 57.547 250.513 57.5368 250.47 57.5172L249.29 56.8372C249.22 56.8372 249.22 56.7272 249.29 56.6772L250.11 56.1972C250.154 56.1773 250.202 56.167 250.25 56.167C250.299 56.167 250.346 56.1773 250.39 56.1972Z" fill="#3A2C6D"/>
<path d="M251.96 57.0871L257.71 60.4071C257.78 60.4071 257.77 60.5171 257.71 60.5671L256.89 61.0371C256.847 61.059 256.799 61.0705 256.75 61.0705C256.702 61.0705 256.654 61.059 256.61 61.0371L250.86 57.7171C250.79 57.7171 250.8 57.6071 250.86 57.5671L251.69 57.0871C251.732 57.0652 251.778 57.0537 251.825 57.0537C251.872 57.0537 251.919 57.0652 251.96 57.0871Z" fill="#3A2C6D"/>
<path d="M257.49 62.997L258.35 63.497C258.42 63.497 258.41 63.607 258.35 63.657L257.53 64.137C257.486 64.1568 257.438 64.1671 257.39 64.1671C257.342 64.1671 257.294 64.1568 257.25 64.137L256.39 63.637C256.32 63.637 256.32 63.527 256.39 63.477L257.21 62.997C257.254 62.9771 257.302 62.9668 257.35 62.9668C257.398 62.9668 257.446 62.9771 257.49 62.997Z" fill="#3A2C6D"/>
<path d="M256.26 62.3269L257.13 62.8269C257.2 62.8269 257.19 62.9469 257.13 62.9869L256.3 63.4669C256.259 63.4888 256.212 63.5002 256.165 63.5002C256.118 63.5002 256.072 63.4888 256.03 63.4669L255.16 62.9669C255.09 62.9669 255.1 62.8569 255.16 62.8069L255.99 62.3369C256.031 62.3134 256.077 62.3003 256.124 62.2985C256.171 62.2968 256.218 62.3065 256.26 62.3269Z" fill="#3A2C6D"/>
<path d="M255.04 61.6269L255.91 62.1269C255.98 62.1269 255.97 62.2369 255.91 62.2869L255.08 62.7569C255.037 62.7789 254.989 62.7904 254.94 62.7904C254.891 62.7904 254.843 62.7789 254.8 62.7569L253.94 62.2569C253.87 62.2069 253.88 62.1369 253.94 62.0969L254.77 61.6169C254.812 61.5966 254.859 61.5868 254.906 61.5886C254.953 61.5903 254.999 61.6035 255.04 61.6269Z" fill="#3A2C6D"/>
<path d="M253.82 60.9169L254.68 61.4169C254.75 61.4169 254.74 61.5269 254.68 61.5769L253.86 62.0569C253.816 62.0768 253.768 62.087 253.72 62.087C253.672 62.087 253.624 62.0768 253.58 62.0569L252.72 61.5569C252.65 61.5569 252.66 61.4469 252.72 61.3969L253.54 60.9169C253.584 60.897 253.632 60.8867 253.68 60.8867C253.728 60.8867 253.776 60.897 253.82 60.9169Z" fill="#3A2C6D"/>
<path d="M252.59 60.2169L253.46 60.7169C253.53 60.7169 253.52 60.8269 253.46 60.8769L252.63 61.3469C252.589 61.3688 252.542 61.3803 252.495 61.3803C252.448 61.3803 252.402 61.3688 252.36 61.3469L251.49 60.8469C251.42 60.8469 251.43 60.7369 251.49 60.6869L252.32 60.2169C252.362 60.195 252.408 60.1836 252.455 60.1836C252.502 60.1836 252.549 60.195 252.59 60.2169Z" fill="#3A2C6D"/>
<path d="M251.37 59.5069L252.24 60.0069C252.31 60.0069 252.3 60.1169 252.24 60.1669L251.41 60.6469C251.368 60.6666 251.322 60.6768 251.275 60.6768C251.228 60.6768 251.182 60.6666 251.14 60.6469L250.27 60.1469C250.2 60.1469 250.21 60.0369 250.27 59.9869L251.1 59.5069C251.142 59.4872 251.188 59.4771 251.235 59.4771C251.282 59.4771 251.328 59.4872 251.37 59.5069Z" fill="#3A2C6D"/>
<path d="M250.15 58.7972L251.01 59.2972C251.08 59.2972 251.08 59.4172 251.01 59.4572L250.19 59.9372C250.147 59.9592 250.099 59.9706 250.05 59.9706C250.002 59.9706 249.954 59.9592 249.91 59.9372L249.05 59.4372C248.98 59.4372 248.99 59.3272 249.05 59.2772L249.87 58.8072C249.913 58.7837 249.96 58.7705 250.009 58.7688C250.058 58.767 250.106 58.7768 250.15 58.7972Z" fill="#3A2C6D"/>
<path d="M248.96 58.0969L249.82 58.5969C249.89 58.5969 249.88 58.7069 249.82 58.7569L249 59.2269C248.958 59.2515 248.909 59.2644 248.86 59.2644C248.811 59.2644 248.763 59.2515 248.72 59.2269L247.86 58.7369C247.79 58.7369 247.79 58.6169 247.86 58.5769L248.68 58.0969C248.724 58.0749 248.771 58.0635 248.82 58.0635C248.869 58.0635 248.917 58.0749 248.96 58.0969Z" fill="#3A2C6D"/>
<path d="M247.7 57.3868L248.57 57.8868C248.64 57.8868 248.63 57.9968 248.57 58.0468L247.74 58.5268C247.698 58.5465 247.652 58.5567 247.605 58.5567C247.558 58.5567 247.512 58.5465 247.47 58.5268L246.6 58.0268C246.53 58.0268 246.54 57.9168 246.6 57.8668L247.43 57.3868C247.472 57.3671 247.518 57.3569 247.565 57.3569C247.612 57.3569 247.658 57.3671 247.7 57.3868Z" fill="#3A2C6D"/>
<path d="M246.48 56.6869L247.34 57.1869C247.42 57.1869 247.41 57.2969 247.34 57.3369L246.51 57.8169C246.467 57.8388 246.419 57.8503 246.37 57.8503C246.321 57.8503 246.274 57.8388 246.23 57.8169L245.37 57.3169C245.3 57.3169 245.31 57.2069 245.37 57.1569L246.19 56.6869C246.235 56.6632 246.285 56.6509 246.335 56.6509C246.386 56.6509 246.435 56.6632 246.48 56.6869Z" fill="#3A2C6D"/>
<path d="M245.26 55.9972L246.12 56.4972C246.19 56.4972 246.18 56.6072 246.12 56.6572L245.3 57.1372C245.256 57.1571 245.208 57.1674 245.16 57.1674C245.112 57.1674 245.064 57.1571 245.02 57.1372L244.16 56.6372C244.09 56.6372 244.1 56.5272 244.16 56.4772L244.96 55.9972C245.006 55.9718 245.058 55.9585 245.11 55.9585C245.163 55.9585 245.214 55.9718 245.26 55.9972Z" fill="#3A2C6D"/>
<path d="M244.03 55.2668L244.9 55.7668C244.97 55.7668 244.96 55.8868 244.9 55.9268L244.07 56.4068C244.029 56.4287 243.982 56.4402 243.935 56.4402C243.888 56.4402 243.842 56.4287 243.8 56.4068L242.93 55.9068C242.86 55.9068 242.87 55.7968 242.93 55.7468L243.76 55.2768C243.801 55.2534 243.847 55.2402 243.894 55.2385C243.941 55.2367 243.988 55.2465 244.03 55.2668Z" fill="#3A2C6D"/>
<path d="M258.71 63.7469L260.5 64.7469C260.57 64.7469 260.56 64.8569 260.5 64.9069L259.67 65.3869C259.628 65.4066 259.582 65.4168 259.535 65.4168C259.489 65.4168 259.443 65.4066 259.4 65.3869L257.61 64.3869C257.54 64.3869 257.55 64.2769 257.61 64.2269L258.43 63.7569C258.473 63.7334 258.521 63.7202 258.569 63.7185C258.618 63.7167 258.666 63.7265 258.71 63.7469Z" fill="#3A2C6D"/>
<path d="M259.28 62.7072L260.14 63.2072C260.22 63.2072 260.21 63.3172 260.14 63.3572L259.32 63.8372C259.277 63.8592 259.229 63.8707 259.18 63.8707C259.132 63.8707 259.084 63.8592 259.04 63.8372L258.18 63.3372C258.11 63.3372 258.12 63.2272 258.18 63.1772L259 62.7072C259.044 62.6853 259.092 62.6738 259.14 62.6738C259.189 62.6738 259.237 62.6853 259.28 62.7072Z" fill="#3A2C6D"/>
<path d="M258.06 61.9968L258.92 62.4968C258.99 62.4968 258.98 62.6068 258.92 62.6568L258.1 63.1368C258.056 63.1567 258.008 63.167 257.96 63.167C257.912 63.167 257.864 63.1567 257.82 63.1368L256.96 62.6368C256.89 62.6368 256.9 62.5268 256.96 62.4768L257.78 61.9968C257.823 61.9748 257.871 61.9634 257.92 61.9634C257.969 61.9634 258.017 61.9748 258.06 61.9968Z" fill="#3A2C6D"/>
<path d="M256.83 61.2869L257.7 61.7869C257.77 61.7869 257.76 61.9069 257.7 61.9469L256.87 62.4269C256.828 62.4488 256.782 62.4602 256.735 62.4602C256.688 62.4602 256.642 62.4488 256.6 62.4269L255.73 61.9269C255.66 61.9269 255.67 61.8169 255.73 61.7669L256.56 61.2969C256.601 61.2734 256.647 61.2602 256.694 61.2585C256.741 61.2568 256.788 61.2665 256.83 61.2869Z" fill="#3A2C6D"/>
<path d="M255.61 60.5871L256.48 61.0871C256.55 61.0871 256.54 61.1971 256.48 61.2471L255.65 61.7171C255.61 61.7418 255.563 61.7548 255.515 61.7548C255.468 61.7548 255.421 61.7418 255.38 61.7171L254.51 61.2271C254.44 61.1771 254.45 61.1071 254.51 61.0671L255.34 60.5871C255.382 60.5652 255.428 60.5537 255.475 60.5537C255.522 60.5537 255.569 60.5652 255.61 60.5871Z" fill="#3A2C6D"/>
<path d="M254.39 59.8768L255.25 60.3768C255.32 60.3768 255.32 60.4868 255.25 60.5368L254.43 61.0168C254.386 61.0367 254.338 61.047 254.29 61.047C254.242 61.047 254.194 61.0367 254.15 61.0168L253.29 60.5168C253.22 60.5168 253.23 60.4068 253.29 60.3568L254.11 59.8768C254.154 59.857 254.202 59.8467 254.25 59.8467C254.298 59.8467 254.346 59.857 254.39 59.8768Z" fill="#3A2C6D"/>
<path d="M253.17 59.177L254.03 59.677C254.1 59.677 254.09 59.787 254.03 59.827L253.21 60.307C253.167 60.3289 253.119 60.3404 253.07 60.3404C253.021 60.3404 252.973 60.3289 252.93 60.307L252.07 59.807C252 59.807 252 59.697 252.07 59.647L252.89 59.177C252.933 59.155 252.981 59.1436 253.03 59.1436C253.079 59.1436 253.127 59.155 253.17 59.177Z" fill="#3A2C6D"/>
<path d="M251.96 58.4669L252.83 58.9669C252.9 58.9669 252.89 59.0769 252.83 59.1269L252 59.6069C251.958 59.6266 251.912 59.6368 251.865 59.6368C251.819 59.6368 251.773 59.6266 251.73 59.6069L250.86 59.1069C250.79 59.1069 250.8 58.9969 250.86 58.9469L251.69 58.4669C251.733 58.4472 251.779 58.437 251.825 58.437C251.872 58.437 251.918 58.4472 251.96 58.4669Z" fill="#3A2C6D"/>
<path d="M250.72 57.7571L251.59 58.2571C251.66 58.2571 251.65 58.3771 251.59 58.4171L250.76 58.8971C250.718 58.919 250.672 58.9304 250.625 58.9304C250.578 58.9304 250.532 58.919 250.49 58.8971L249.62 58.3971C249.55 58.3971 249.56 58.2871 249.62 58.2371L250.45 57.7671C250.491 57.7436 250.537 57.7305 250.584 57.7287C250.631 57.727 250.678 57.7367 250.72 57.7571Z" fill="#3A2C6D"/>
<path d="M249.5 57.0572L250.36 57.5572C250.43 57.5572 250.42 57.6672 250.36 57.7172L249.54 58.1872C249.496 58.2092 249.449 58.2206 249.4 58.2206C249.351 58.2206 249.303 58.2092 249.26 58.1872L248.4 57.6872C248.33 57.6872 248.34 57.5672 248.4 57.5272L249.22 57.0472C249.264 57.0268 249.312 57.017 249.361 57.0188C249.41 57.0205 249.457 57.0337 249.5 57.0572Z" fill="#3A2C6D"/>
<path d="M248.28 56.3471L249.14 56.8471C249.21 56.8471 249.2 56.9571 249.14 57.0071L248.32 57.4871C248.276 57.5069 248.229 57.5172 248.18 57.5172C248.132 57.5172 248.084 57.5069 248.04 57.4871L247.18 56.9871C247.1 56.9871 247.11 56.8771 247.18 56.8271L248 56.3471C248.044 56.3272 248.092 56.3169 248.14 56.3169C248.189 56.3169 248.236 56.3272 248.28 56.3471Z" fill="#3A2C6D"/>
<path d="M247.05 55.6471L247.92 56.1471C247.99 56.1471 247.98 56.2571 247.92 56.3071L247.09 56.7771C247.049 56.799 247.002 56.8104 246.955 56.8104C246.908 56.8104 246.862 56.799 246.82 56.7771L245.95 56.2771C245.88 56.2771 245.89 56.1671 245.95 56.1271L246.78 55.6471C246.822 55.6252 246.868 55.6138 246.915 55.6138C246.962 55.6138 247.009 55.6252 247.05 55.6471Z" fill="#3A2C6D"/>
<path d="M244.32 54.0671L246.7 55.4371C246.77 55.4371 246.76 55.5471 246.7 55.5971L245.87 56.0771C245.826 56.097 245.778 56.1073 245.73 56.1073C245.682 56.1073 245.634 56.097 245.59 56.0771L243.22 54.6971C243.15 54.6971 243.15 54.5871 243.22 54.5471L244.04 54.0671C244.083 54.0451 244.131 54.0337 244.18 54.0337C244.229 54.0337 244.277 54.0451 244.32 54.0671Z" fill="#3A2C6D"/>
<path d="M260.5 63.4068L261.68 64.0868C261.75 64.0868 261.74 64.2068 261.68 64.2468L260.86 64.7268C260.816 64.7488 260.769 64.7602 260.72 64.7602C260.671 64.7602 260.623 64.7488 260.58 64.7268L259.4 64.0468C259.33 64.0468 259.34 63.9368 259.4 63.8868L260.23 63.4068C260.272 63.3871 260.318 63.377 260.365 63.377C260.412 63.377 260.458 63.3871 260.5 63.4068Z" fill="#3A2C6D"/>
<path d="M239.53 56.8269L256.89 66.8269C256.96 66.8269 256.96 66.9369 256.89 66.9869L256.48 67.2169C256.439 67.2388 256.392 67.2502 256.345 67.2502C256.298 67.2502 256.252 67.2388 256.21 67.2169L238.84 57.2169C238.77 57.2169 238.78 57.1069 238.84 57.0569L239.25 56.8169C239.295 56.7986 239.343 56.79 239.391 56.7917C239.44 56.7934 239.487 56.8054 239.53 56.8269Z" fill="#3A2C6D"/>
<path d="M259.85 57.2772L259.73 57.3372L256.73 59.0772L251.4 55.9972L251.29 55.9272L254.4 54.1372L259.85 57.2772Z" fill="#BFBFBF"/>
<path d="M259.73 57.3371L256.73 59.0771L251.4 55.9971L254.4 54.2671L259.73 57.3371Z" fill="#E5E5E5"/>
<path d="M268.4 61.3172V61.5872C268.402 61.7791 268.352 61.9679 268.258 62.1347C268.163 62.3016 268.026 62.4404 267.86 62.5372L257.28 68.6372C257.115 68.7349 256.927 68.7864 256.735 68.7864C256.543 68.7864 256.355 68.7349 256.19 68.6372L237.05 57.6372C236.876 57.5368 236.732 57.3904 236.635 57.2141C236.538 57.0378 236.491 56.8382 236.5 56.6372V56.3672L256.73 68.0472L268.4 61.3172Z" fill="#E5E5E5"/>
<path d="M256.43 68.2172C256.249 68.2884 256.055 68.3182 255.861 68.3044C255.667 68.2905 255.479 68.2334 255.31 68.1372L236.31 57.1372C236.144 57.0418 236.002 56.9106 235.893 56.7532C235.784 56.5958 235.711 56.4162 235.68 56.2272L233.59 43.7872C233.585 43.7173 233.585 43.6471 233.59 43.5772C233.59 43.4055 233.624 43.2354 233.691 43.0773C233.758 42.9191 233.856 42.7762 233.98 42.6572L253.78 54.0872C253.899 54.1605 254.002 54.258 254.081 54.3734C254.161 54.4888 254.215 54.6196 254.24 54.7572L256.43 68.2172Z" fill="#F4F4F4"/>
<path d="M256.73 68.057L256.6 68.137L256.43 68.217L254.17 54.757C254.144 54.6194 254.09 54.4886 254.011 54.3732C253.932 54.2578 253.829 54.1603 253.71 54.087L233.96 42.657C234.033 42.5743 234.121 42.5064 234.22 42.457L254.06 53.907C254.181 53.9792 254.286 54.0763 254.367 54.1917C254.448 54.3072 254.503 54.4385 254.53 54.577L256.73 68.057Z" fill="#E5E5E5"/>
<path d="M271.12 14.8271C271.12 14.8271 270.87 19.5571 270.98 19.9771C271.09 20.3971 273.15 21.7871 273.75 22.2871C274.35 22.7871 270.48 26.6071 268.6 27.4671C266.72 28.3271 260.74 26.0571 260.6 23.1171C260.46 20.1771 261.6 17.7271 262.54 17.5971C263.48 17.4671 271.12 14.8271 271.12 14.8271Z" fill="#FFCEA9"/>
<path d="M271.64 20.7972C271.64 20.7972 268.21 25.9172 263.42 26.3972C261.91 24.9072 261.77 19.6072 263.86 17.9172C263.86 17.9172 261.94 16.3572 260.62 16.6672C259.19 17.5121 258.122 18.8543 257.62 20.4372C256.394 23.9709 255.821 27.6984 255.93 31.4372C256.01 36.4372 255.93 49.1472 255.93 49.1472C256.211 50.6468 256.807 52.0698 257.677 53.3228C258.547 54.5758 259.673 55.6304 260.98 56.4172C264.442 58.3812 268.525 58.9465 272.39 57.9972C274.82 57.4272 275.72 56.0772 276.56 54.3072C276.34 50.7972 274.95 43.5472 275.56 39.1172C276.17 34.6872 277.08 31.3872 277.32 27.8172C277.56 24.2472 276.85 24.3072 275.05 23.0272C273.969 22.2024 272.829 21.4571 271.64 20.7972Z" fill="#F4F4F4"/>
<path d="M266.14 61.587C267.001 61.0138 267.899 60.4993 268.83 60.047C269.697 59.7704 270.486 59.2903 271.13 58.647C271.97 57.827 273.35 54.707 274.34 51.647C275.325 48.2154 275.714 44.6402 275.49 41.077C275.08 36.807 273.54 30.837 273.15 28.387C272.76 25.937 273.55 24.947 274.7 24.047C276.04 22.987 277.89 23.457 278.88 26.897C280.155 31.6563 280.893 36.5434 281.08 41.467C281.12 45.1245 280.556 48.7636 279.41 52.237C278.39 55.2125 277.014 58.0532 275.31 60.697C274.84 61.487 274.68 62.197 273.96 63.817C273.268 65.4448 272.191 66.8796 270.82 67.997C269.62 68.857 269.05 68.997 268.76 68.817C268.47 68.637 268.48 68.227 268.99 67.817C269.841 67.1477 270.566 66.3315 271.13 65.407C271.13 65.407 270.08 66.467 269.39 67.047C268.782 67.5601 268.11 67.9905 267.39 68.327C266.69 68.637 265.71 68.037 266.21 67.567C266.71 67.097 267.21 66.857 268.21 65.987C268.748 65.5306 269.228 65.0101 269.64 64.437C268.936 64.9788 268.19 65.4637 267.41 65.887C266.807 66.2518 266.114 66.4422 265.41 66.437C265.04 66.437 264.59 65.897 265.29 65.437C266.252 64.9158 267.148 64.2813 267.96 63.547C268.73 62.787 269.16 62.137 268.96 62.127C268.76 62.117 268.32 62.587 267.42 62.877C266.52 63.167 265.55 62.877 265.42 62.407C265.29 61.937 265.3 61.997 266.14 61.587Z" fill="#FFCEA9"/>
<path d="M260.4 7.76727C260.97 4.09727 263.62 1.31727 267.4 1.52727C268.924 1.60481 270.386 2.15967 271.578 3.11337C272.77 4.06708 273.632 5.37137 274.042 6.84181C274.453 8.31225 274.39 9.87442 273.864 11.3074C273.338 12.7404 272.374 13.9718 271.11 14.8273C270.976 15.3849 270.778 15.9251 270.52 16.4373C269.19 17.9973 265.14 18.9973 263.96 18.7973C263.27 18.7346 262.614 18.4654 262.079 18.0248C261.544 17.5842 261.154 16.9927 260.96 16.3273C259.7 13.4473 260.09 9.58727 260.4 7.76727Z" fill="#FFCEA9"/>
<path d="M271.12 14.8271L270.77 11.6171C270.77 11.6171 273.39 4.83707 267.2 6.13707C263.12 6.99707 262.09 7.37707 260.85 4.63707C259.61 1.89707 263.96 -0.572927 269.19 0.117073C270.982 0.302405 272.639 1.15492 273.832 2.50538C275.025 3.85584 275.667 5.60551 275.63 7.40707C275.5 9.42707 274.96 13.5071 271.12 14.8271Z" fill="#3A2C6D"/>
<path d="M281.71 33.2273C281.71 33.2273 278.33 36.5873 274.34 35.6173C273.77 35.2273 272.39 27.3773 272.39 27.3773C272.39 27.3773 272.39 23.0273 275.73 23.1373C279.07 23.2473 281.71 33.2273 281.71 33.2273Z" fill="#EDEDED"/>
<path d="M256.21 26.707C255.265 26.673 254.369 26.2753 253.71 25.597C253.85 23.837 256.1 17.157 260.62 16.667C259.39 17.5294 258.416 18.7074 257.8 20.077C257.097 22.2418 256.565 24.4586 256.21 26.707Z" fill="#EDEDED"/>
<path d="M459.36 311.147L375.84 262.927C370.59 259.927 366.34 251.777 366.34 244.787V113.377C366.34 106.377 370.59 103.177 375.84 106.197L459.36 154.427C464.6 157.427 468.85 165.577 468.85 172.567V303.997C468.85 310.997 464.6 314.177 459.36 311.147Z" fill="#211B49"/>
<path d="M462.7 313.067L465.56 311.657L463.63 307.867L462.7 313.067Z" fill="#211B49"/>
<path d="M367.9 106.567C368.741 106.067 369.624 105.642 370.54 105.297L372.66 109.487L367.9 106.567Z" fill="#211B49"/>
<path d="M457.17 312.247L373.64 263.997C368.4 260.997 364.15 252.847 364.15 245.857V114.477C364.15 107.477 368.4 104.267 373.64 107.297L457.17 155.527C462.41 158.527 466.66 166.667 466.66 173.657V305.067C466.66 312.057 462.41 315.277 457.17 312.247Z" fill="#E9EAF2"/>
<path d="M388.83 134.697L373.64 125.927V120.447L388.83 129.217V134.697Z" fill="#BFBCD3"/>
<path d="M456.22 173.607L391.68 136.337V130.867L456.22 168.127V173.607Z" fill="#95C4CE"/>
<path d="M388.83 152.237L373.64 143.467V137.987L388.83 146.757V152.237Z" fill="#BFBCD3"/>
<path d="M434.39 178.537L391.68 153.877V148.397L434.39 173.057V178.537Z" fill="#50838E"/>
<path d="M388.83 160.997L373.64 152.237V146.757L388.83 155.517V160.997Z" fill="#BFBCD3"/>
<path d="M444.83 193.337L391.68 162.647V157.167L444.83 187.857V193.337Z" fill="#5AB3C7"/>
<path d="M388.83 169.767L373.64 160.997V155.517L388.83 164.287V169.767Z" fill="#BFBCD3"/>
<path d="M428.7 192.787L391.68 171.417V165.937L428.7 187.307V192.787Z" fill="#BFBCD3"/>
<path d="M388.83 143.467L373.64 134.697V129.217L388.83 137.987V143.467Z" fill="#BFBCD3"/>
<path d="M423.95 163.747L391.68 145.107V139.627L423.95 158.257V163.747Z" fill="#25564D"/>
<path d="M388.83 178.537L373.64 169.767V164.287L388.83 173.057V178.537Z" fill="#BFBCD3"/>
<path d="M410.66 191.137L391.68 180.177V174.697L410.66 185.657V191.137Z" fill="#95C4CE"/>
<path d="M388.83 196.067L373.64 187.307V181.827L388.83 190.597V196.067Z" fill="#BFBCD3"/>
<path d="M451.48 232.237L391.68 197.717V192.237L451.48 226.757V232.237Z" fill="#50838E"/>
<path d="M388.83 204.837L373.64 196.067V190.587L388.83 199.357V204.837Z" fill="#BFBCD3"/>
<path d="M409.71 216.897L391.68 206.487V201.007L409.71 211.417V216.897Z" fill="#5AB3C7"/>
<path d="M388.83 213.607L373.64 204.837V199.357L388.83 208.127V213.607Z" fill="#BFBCD3"/>
<path d="M444.83 245.937L391.68 215.247V209.777L444.83 240.457V245.937Z" fill="#BFBCD3"/>
<path d="M388.83 187.307L373.64 178.537V173.057L388.83 181.827V187.307Z" fill="#BFBCD3"/>
<path d="M441.98 217.997L391.68 188.947V183.467L441.98 212.517V217.997Z" fill="#25564D"/>
<path d="M388.83 222.377L373.64 213.607V208.127L388.83 216.897V222.377Z" fill="#BFBCD3"/>
<path d="M398.32 227.857L391.68 224.017V218.537L398.32 222.377V227.857Z" fill="#95C4CE"/>
<path d="M388.83 239.907L373.64 231.147V225.667L388.83 234.437V239.907Z" fill="#BFBCD3"/>
<path d="M404.02 248.677L391.68 241.557V236.077L404.02 243.197V248.677Z" fill="#50838E"/>
<path d="M388.83 248.677L373.64 239.907V234.427L388.83 243.197V248.677Z" fill="#BFBCD3"/>
<path d="M423.95 268.957L391.68 250.327V244.847L423.95 263.477V268.957Z" fill="#5AB3C7"/>
<path d="M388.83 257.447L373.64 248.677V243.197L388.83 251.967V257.447Z" fill="#BFBCD3"/>
<path d="M442.93 288.687L391.68 259.087V253.607L442.93 283.207V288.687Z" fill="#BFBCD3"/>
<path d="M388.83 231.147L373.64 222.377V216.897L388.83 225.667V231.147Z" fill="#BFBCD3"/>
<path d="M456.22 270.057L391.68 232.787V227.307L456.22 264.567V270.057Z" fill="#25564D"/>
<path d="M36.08 211.937L26.96 207.257L7.85 218.257C3.52 220.757 0 218.737 0 213.727V192.907C0.147739 190.183 0.935499 187.532 2.29939 185.169C3.66328 182.806 5.56489 180.798 7.85 179.307L121.66 113.577C125.99 111.077 129.51 113.107 129.51 118.107V138.997C129.362 141.721 128.574 144.372 127.211 146.735C125.847 149.098 123.945 151.106 121.66 152.597L45.14 196.737" fill="#B1B4C4"/>
<path d="M126.66 112.767L130.96 114.507L127.32 118.247L124.74 114.117L126.66 112.767Z" fill="#B1B4C4"/>
<path d="M36.0801 211.937L40.6101 213.757L40.6201 209.857L36.6101 209.057L36.0801 211.937Z" fill="#B1B4C4"/>
<path d="M7.56984 220.997C7.73984 221.357 2.65984 219.277 2.47984 218.997C2.29984 218.717 8.63984 214.997 8.63984 214.997L7.56984 220.997Z" fill="#B1B4C4"/>
<path d="M49.6702 198.547L126.19 154.377C128.474 152.885 130.374 150.876 131.738 148.513C133.101 146.151 133.89 143.501 134.04 140.777V119.927C134.04 114.927 130.52 112.927 126.19 115.387L12.3402 181.117C10.0562 182.609 8.15547 184.617 6.79172 186.98C5.42797 189.343 4.63955 191.993 4.49023 194.717V215.567C4.49023 220.567 8.01023 222.567 12.3402 220.097L31.4502 209.097L40.6102 213.787L49.6702 198.547Z" fill="#E9EAF2"/>
<path d="M123.83 133.527L14.7002 196.527V189.277L123.83 126.267V133.527Z" fill="#50838E"/>
<path d="M86.1502 167.977L14.7002 209.227V201.967L86.1502 160.717V167.977Z" fill="#50838E"/>
</g>
<defs>
<linearGradient id="paint0_linear_937_9" x1="321.207" y1="289.529" x2="404.31" y2="144.929" gradientUnits="userSpaceOnUse">
<stop offset="0.21" stop-color="white" stop-opacity="0"/>
<stop offset="1" stop-color="white" stop-opacity="0.2"/>
</linearGradient>
<linearGradient id="paint1_linear_937_9" x1="342.733" y1="239.825" x2="320.277" y2="278.899" gradientUnits="userSpaceOnUse">
<stop stop-color="#E9EAF2" stop-opacity="0.8"/>
<stop offset="1" stop-color="#E9EAF2" stop-opacity="0"/>
</linearGradient>
<clipPath id="clip0_937_9">
<rect width="468.89" height="500" fill="white"/>
</clipPath>
</defs>
</svg>
