<svg width="240" height="70" viewBox="0 0 240 70" fill="none" xmlns="http://www.w3.org/2000/svg">
<rect width="70" height="70" rx="10" fill="#50838E"/>
<path d="M28.7498 34.4792C27.3123 34.4792 26.1457 35.6459 26.1457 37.0834C26.1457 38.5209 27.3123 39.6876 28.7498 39.6876C30.1873 39.6876 31.354 38.5209 31.354 37.0834C31.354 35.6459 30.1873 34.4792 28.7498 34.4792ZM41.2498 34.4792C39.8123 34.4792 38.6457 35.6459 38.6457 37.0834C38.6457 38.5209 39.8123 39.6876 41.2498 39.6876C42.6873 39.6876 43.854 38.5209 43.854 37.0834C43.854 35.6459 42.6873 34.4792 41.2498 34.4792ZM34.9998 14.1667C23.4998 14.1667 14.1665 23.5001 14.1665 35.0001C14.1665 46.5001 23.4998 55.8334 34.9998 55.8334C46.4998 55.8334 55.8332 46.5001 55.8332 35.0001C55.8332 23.5001 46.4998 14.1667 34.9998 14.1667ZM34.9998 51.6668C25.8123 51.6668 18.3332 44.1876 18.3332 35.0001C18.3332 34.3959 18.3748 33.7917 18.4373 33.2084C23.354 31.0209 27.2498 27.0001 29.2915 22.0209C33.0623 27.3542 39.2707 30.8334 46.2915 30.8334C47.9165 30.8334 49.479 30.6459 50.979 30.2917C51.4165 31.7709 51.6665 33.3542 51.6665 35.0001C51.6665 44.1876 44.1873 51.6668 34.9998 51.6668Z" fill="white"/>
<path d="M106.266 36.2695C106.266 38.1992 105.906 39.8125 105.188 41.1094C104.469 42.3984 103.426 43.3711 102.059 44.0273C100.691 44.6758 99.043 45 97.1133 45H92.3555V27.8672H97.6289C99.4023 27.8672 100.934 28.1875 102.223 28.8281C103.512 29.4609 104.508 30.4023 105.211 31.6523C105.914 32.8945 106.266 34.4336 106.266 36.2695ZM103.336 36.3516C103.336 34.9453 103.113 33.7891 102.668 32.8828C102.23 31.9766 101.582 31.3047 100.723 30.8672C99.8711 30.4219 98.8203 30.1992 97.5703 30.1992H95.168V42.6445H97.1602C99.2305 42.6445 100.777 42.1172 101.801 41.0625C102.824 40.0078 103.336 38.4375 103.336 36.3516ZM114.844 31.7812C116 31.7812 116.992 32.0195 117.82 32.4961C118.648 32.9727 119.285 33.6484 119.73 34.5234C120.176 35.3984 120.398 36.4453 120.398 37.6641V39.1406H111.738C111.77 40.3984 112.105 41.3672 112.746 42.0469C113.395 42.7266 114.301 43.0664 115.465 43.0664C116.293 43.0664 117.035 42.9883 117.691 42.832C118.355 42.668 119.039 42.4297 119.742 42.1172V44.3555C119.094 44.6602 118.434 44.8828 117.762 45.0234C117.09 45.1641 116.285 45.2344 115.348 45.2344C114.074 45.2344 112.953 44.9883 111.984 44.4961C111.023 43.9961 110.27 43.2539 109.723 42.2695C109.184 41.2852 108.914 40.0625 108.914 38.6016C108.914 37.1484 109.16 35.9141 109.652 34.8984C110.145 33.8828 110.836 33.1094 111.727 32.5781C112.617 32.0469 113.656 31.7812 114.844 31.7812ZM114.844 33.8555C113.977 33.8555 113.273 34.1367 112.734 34.6992C112.203 35.2617 111.891 36.0859 111.797 37.1719H117.703C117.695 36.5234 117.586 35.9492 117.375 35.4492C117.172 34.9492 116.859 34.5586 116.438 34.2773C116.023 33.9961 115.492 33.8555 114.844 33.8555ZM126.469 45L121.535 32.0273H124.453L127.125 39.6445C127.297 40.1289 127.453 40.6523 127.594 41.2148C127.734 41.7773 127.832 42.25 127.887 42.6328H127.98C128.035 42.2344 128.141 41.7578 128.297 41.2031C128.453 40.6406 128.613 40.1211 128.777 39.6445L131.449 32.0273H134.355L129.422 45H126.469ZM141.492 31.7812C142.648 31.7812 143.641 32.0195 144.469 32.4961C145.297 32.9727 145.934 33.6484 146.379 34.5234C146.824 35.3984 147.047 36.4453 147.047 37.6641V39.1406H138.387C138.418 40.3984 138.754 41.3672 139.395 42.0469C140.043 42.7266 140.949 43.0664 142.113 43.0664C142.941 43.0664 143.684 42.9883 144.34 42.832C145.004 42.668 145.688 42.4297 146.391 42.1172V44.3555C145.742 44.6602 145.082 44.8828 144.41 45.0234C143.738 45.1641 142.934 45.2344 141.996 45.2344C140.723 45.2344 139.602 44.9883 138.633 44.4961C137.672 43.9961 136.918 43.2539 136.371 42.2695C135.832 41.2852 135.562 40.0625 135.562 38.6016C135.562 37.1484 135.809 35.9141 136.301 34.8984C136.793 33.8828 137.484 33.1094 138.375 32.5781C139.266 32.0469 140.305 31.7812 141.492 31.7812ZM141.492 33.8555C140.625 33.8555 139.922 34.1367 139.383 34.6992C138.852 35.2617 138.539 36.0859 138.445 37.1719H144.352C144.344 36.5234 144.234 35.9492 144.023 35.4492C143.82 34.9492 143.508 34.5586 143.086 34.2773C142.672 33.9961 142.141 33.8555 141.492 33.8555ZM152.918 45H150.152V26.7656H152.918V45ZM167.566 38.6133C167.566 39.5977 167.445 40.4961 167.203 41.3086C166.961 42.1133 166.602 42.8086 166.125 43.3945C165.648 43.9805 165.055 44.4336 164.344 44.7539C163.641 45.0742 162.82 45.2344 161.883 45.2344C160.992 45.2344 160.199 45.0781 159.504 44.7656C158.809 44.4453 158.219 43.9922 157.734 43.4062C157.258 42.8203 156.895 42.125 156.645 41.3203C156.395 40.5078 156.27 39.6055 156.27 38.6133C156.27 37.2461 156.496 36.0703 156.949 35.0859C157.41 34.0938 158.066 33.3359 158.918 32.8125C159.777 32.2812 160.805 32.0156 162 32.0156C163.234 32.0156 164.262 32.2969 165.082 32.8594C165.91 33.4141 166.531 34.1875 166.945 35.1797C167.359 36.1719 167.566 37.3164 167.566 38.6133ZM157.488 38.6133C157.488 39.7305 157.648 40.707 157.969 41.543C158.289 42.3789 158.773 43.0312 159.422 43.5C160.078 43.9688 160.906 44.2031 161.906 44.2031C162.93 44.2031 163.77 43.9688 164.426 43.5C165.082 43.0312 165.566 42.375 165.879 41.5312C166.191 40.6875 166.348 39.7148 166.348 38.6133C166.348 37.543 166.199 36.5898 165.902 35.7539C165.605 34.918 165.137 34.2617 164.496 33.7852C163.855 33.3008 163.02 33.0586 161.988 33.0586C160.512 33.0586 159.391 33.5508 158.625 34.5352C157.867 35.5195 157.488 36.8789 157.488 38.6133ZM176.73 32.0156C178.371 32.0156 179.641 32.5664 180.539 33.668C181.445 34.7695 181.898 36.3945 181.898 38.543C181.898 39.9805 181.684 41.1992 181.254 42.1992C180.824 43.1914 180.211 43.9453 179.414 44.4609C178.625 44.9766 177.676 45.2344 176.566 45.2344C175.801 45.2344 175.133 45.1211 174.562 44.8945C174 44.6602 173.531 44.3477 173.156 43.957C172.781 43.5586 172.492 43.1211 172.289 42.6445H172.207C172.23 43.0898 172.25 43.5547 172.266 44.0391C172.281 44.5234 172.289 44.9805 172.289 45.4102V50.6367H171.094V32.2617H172.078L172.219 34.8047H172.289C172.5 34.3203 172.797 33.8633 173.18 33.4336C173.562 33.0039 174.047 32.6602 174.633 32.4023C175.219 32.1445 175.918 32.0156 176.73 32.0156ZM176.578 33.0586C175.617 33.0586 174.816 33.2695 174.176 33.6914C173.543 34.1055 173.07 34.7148 172.758 35.5195C172.453 36.3164 172.297 37.293 172.289 38.4492V38.6484C172.289 39.8906 172.441 40.9258 172.746 41.7539C173.059 42.5742 173.523 43.1875 174.141 43.5938C174.766 44 175.539 44.2031 176.461 44.2031C177.367 44.2031 178.133 43.9805 178.758 43.5352C179.383 43.0898 179.859 42.4453 180.188 41.6016C180.516 40.7578 180.68 39.7344 180.68 38.5312C180.68 36.7422 180.336 35.3828 179.648 34.4531C178.969 33.5234 177.945 33.0586 176.578 33.0586ZM198.527 32.0156C199.754 32.0156 200.723 32.3711 201.434 33.082C202.145 33.793 202.5 34.9141 202.5 36.4453V45H201.34V36.4922C201.34 35.3125 201.07 34.4453 200.531 33.8906C199.992 33.3359 199.281 33.0586 198.398 33.0586C197.188 33.0586 196.238 33.4141 195.551 34.125C194.871 34.8281 194.531 35.9375 194.531 37.4531V45H193.359V36.4922C193.359 35.7031 193.234 35.0586 192.984 34.5586C192.742 34.0508 192.402 33.6758 191.965 33.4336C191.527 33.1836 191.012 33.0586 190.418 33.0586C189.629 33.0586 188.945 33.2227 188.367 33.5508C187.789 33.8711 187.344 34.3711 187.031 35.0508C186.719 35.7227 186.562 36.5781 186.562 37.6172V45H185.379V32.2617H186.34L186.516 34.3477H186.586C186.797 33.9336 187.078 33.5508 187.43 33.1992C187.781 32.8477 188.215 32.5625 188.73 32.3438C189.254 32.125 189.867 32.0156 190.57 32.0156C191.484 32.0156 192.258 32.2227 192.891 32.6367C193.531 33.043 193.977 33.6484 194.227 34.4531H194.309C194.652 33.6875 195.184 33.0898 195.902 32.6602C196.629 32.2305 197.504 32.0156 198.527 32.0156ZM211.418 32.0156C212.504 32.0156 213.406 32.2695 214.125 32.7773C214.852 33.2852 215.391 33.9805 215.742 34.8633C216.102 35.7461 216.281 36.7578 216.281 37.8984V38.7539H207.082C207.082 40.5039 207.484 41.8477 208.289 42.7852C209.102 43.7227 210.262 44.1914 211.77 44.1914C212.559 44.1914 213.242 44.1289 213.82 44.0039C214.406 43.8711 215.055 43.6484 215.766 43.3359V44.4258C215.141 44.707 214.516 44.9102 213.891 45.0352C213.266 45.168 212.547 45.2344 211.734 45.2344C210.445 45.2344 209.363 44.9688 208.488 44.4375C207.621 43.8984 206.965 43.1406 206.52 42.1641C206.082 41.1875 205.863 40.0469 205.863 38.7422C205.863 37.4688 206.074 36.3242 206.496 35.3086C206.926 34.293 207.551 33.4922 208.371 32.9062C209.199 32.3125 210.215 32.0156 211.418 32.0156ZM211.406 33.0352C210.188 33.0352 209.199 33.4414 208.441 34.2539C207.691 35.0586 207.25 36.2227 207.117 37.7461H215.051C215.051 36.8164 214.918 35.9961 214.652 35.2852C214.387 34.5742 213.984 34.0234 213.445 33.6328C212.914 33.2344 212.234 33.0352 211.406 33.0352ZM225.398 32.0156C226.828 32.0156 227.926 32.3906 228.691 33.1406C229.457 33.8906 229.84 35.0664 229.84 36.668V45H228.668V36.7383C228.668 35.4727 228.379 34.543 227.801 33.9492C227.223 33.3555 226.383 33.0586 225.281 33.0586C223.883 33.0586 222.812 33.4688 222.07 34.2891C221.336 35.1016 220.969 36.332 220.969 37.9805V45H219.785V32.2617H220.746L220.922 34.582H220.992C221.219 34.1055 221.527 33.6758 221.918 33.293C222.316 32.9023 222.805 32.5938 223.383 32.3672C223.961 32.1328 224.633 32.0156 225.398 32.0156ZM237.41 44.2148C237.777 44.2148 238.117 44.1875 238.43 44.1328C238.75 44.0781 239.031 44.0078 239.273 43.9219V44.9062C239.023 44.9922 238.73 45.0664 238.395 45.1289C238.059 45.1992 237.688 45.2344 237.281 45.2344C236.562 45.2344 235.965 45.1016 235.488 44.8359C235.012 44.5625 234.652 44.1523 234.41 43.6055C234.168 43.0508 234.047 42.3477 234.047 41.4961V33.2461H232.148V32.543L234.035 32.1797L234.445 29.1797H235.23V32.2617H239.203V33.2461H235.23V41.4258C235.23 42.3398 235.398 43.0352 235.734 43.5117C236.078 43.9805 236.637 44.2148 237.41 44.2148Z" fill="#838383"/>
</svg>
